<?xml version="1.0" standalone="yes"?>
<svg xmlns="http://www.w3.org/2000/svg" width="496" height="170">
<path style="fill:#010101; stroke:none;" d="M0 0L0 170L496 170L496 0L0 0z"/>
<path style="fill:#a6a6a6; stroke:none;" d="M24 2.46759C12.9967 4.54347 4.54345 12.9967 2.46759 24C0.320835 35.3791 2 48.4342 2 60L2 131C2 144.834 2.90653 158.307 17 165.179C27.9723 170.529 43.1041 168 55 168L134 168L372 168L442 168C452.932 168 466.582 170.176 477 166.451C488.2 162.447 494.454 151.471 494.961 140C496.442 106.476 495 72.5598 495 39C495 24.5006 492.749 9.17897 477 3.54861C464.215 -1.02211 446.458 2 433 2L341 2L127 2L59 2C47.7491 2 35.0703 0.379059 24 2.46759z"/>
<path style="fill:#6b6b6b; stroke:none;" d="M30 5L30 6L466 6C455.973 1.7923 438.896 5 428 5L339 5L30 5M23.6667 6.33333L24.3333 6.66667L23.6667 6.33333z"/>
<path style="fill:#505050; stroke:none;" d="M25 6L26 7L25 6z"/>
<path style="fill:#010101; stroke:none;" d="M26 6.46451C14.5217 8.54878 6.93839 17.4401 6.09028 29C3.74515 60.9645 6 93.9414 6 126C6 139.307 4.94 154.443 19.0008 161.33C29.5921 166.518 44.5279 164 56 164L134 164L372 164L441 164C452.022 164 465.533 166.081 476 162.045C490.469 156.466 491 141.172 491 128C491 97.0074 491.365 65.9901 490.996 35C490.859 23.4537 487.017 11.5984 475 7.59877C461.348 3.05515 443.258 6 429 6L336 6L127 6L60 6C49.03 6 36.8077 4.50198 26 6.46451z"/>
<path style="fill:#505050; stroke:none;" d="M470.667 6.33333L471.333 6.66667L470.667 6.33333z"/>
<path style="fill:#6b6b6b; stroke:none;" d="M472 6L473 7L472 6M20 7L21 8L20 7z"/>
<path style="fill:#505050; stroke:none;" d="M21 7L22 8L21 7M475 7L476 8L475 7z"/>
<path style="fill:#6b6b6b; stroke:none;" d="M18 8L19 9L18 8z"/>
<path style="fill:#505050; stroke:none;" d="M477 8L478 9L477 8M17 9L18 10L17 9M479 9L480 10L479 9M15 10L16 11L15 10z"/>
<path style="fill:#6b6b6b; stroke:none;" d="M481 10L482 11L481 10z"/>
<path style="fill:#505050; stroke:none;" d="M14 11L15 12L14 11z"/>
<path style="fill:#6b6b6b; stroke:none;" d="M482 11L483 12L482 11z"/>
<path style="fill:#505050; stroke:none;" d="M483 12L484 13L483 12z"/>
<path style="fill:#6b6b6b; stroke:none;" d="M484 13L485 14L484 13z"/>
<path style="fill:#505050; stroke:none;" d="M11 14L12 15L11 14z"/>
<path style="fill:#6b6b6b; stroke:none;" d="M485 14L486 15L485 14z"/>
<path style="fill:#505050; stroke:none;" d="M10 15L11 16L10 15M486 16L487 17L486 16M9 17L10 18L9 17z"/>
<path style="fill:#6b6b6b; stroke:none;" d="M487 17L488 18L487 17M8 18L9 19L8 18M488 19L489 20L488 19M7 20L8 21L7 20z"/>
<path style="fill:#505050; stroke:none;" d="M7 21L8 22L7 21z"/>
<path style="fill:#6b6b6b; stroke:none;" d="M489 21L490 22L489 21z"/>
<path style="fill:#505050; stroke:none;" d="M489 22L490 23L489 22z"/>
<path style="fill:#6b6b6b; stroke:none;" d="M6 24L7 25L6 24z"/>
<path style="fill:#505050; stroke:none;" d="M6 25L7 26L6 25z"/>
<path style="fill:#6b6b6b; stroke:none;" d="M490.333 25.6667L490.667 26.3333L490.333 25.6667z"/>
<path style="fill:#505050; stroke:none;" d="M490.333 27.6667L490.667 28.3333L490.333 27.6667z"/>
<path style="fill:#6b6b6b; stroke:none;" d="M5 30L5 140L6 140L6 63L5 30M245 30L245 58L246 58L245 30z"/>
<path style="fill:#fdfdfd; stroke:none;" d="M246 30L246 58L249 58L249 30L246 30z"/>
<path style="fill:#a6a6a6; stroke:none;" d="M249 30C249 36.7617 252.091 54.0515 246 58L246 59C252.594 56.8114 251.392 35.7014 249 30z"/>
<path style="fill:#fdfdfd; stroke:none;" d="M319 30L319 41C317.351 39.9117 315.95 38.8546 313.975 38.4252C294.636 34.2193 307.69 70.527 318 55L319 55L323 58L323 30L319 30z"/>
<path style="fill:#505050; stroke:none;" d="M323 30L323 58L324 58L323 30z"/>
<path style="fill:#fdfdfd; stroke:none;" d="M418 30L418 58L422 58C422 54.282 421.243 49.5414 422.603 46.0193C424.362 41.4646 429.255 40.5413 431.682 45.0594C433.698 48.813 433 53.8912 433 58L436 58C436 47.4599 436.543 33.0014 422 41L422 30L418 30z"/>
<path style="fill:#505050; stroke:none;" d="M422 30L422 41L423 41L422 30z"/>
<path style="fill:#a6a6a6; stroke:none;" d="M135 31L135 32L148 32L135 31z"/>
<path style="fill:#6b6b6b; stroke:none;" d="M148 31L149 32L148 31z"/>
<path style="fill:#505050; stroke:none;" d="M149 31L150 32L149 31z"/>
<path style="fill:#fdfdfd; stroke:none;" d="M135 32L135 58C140.479 58 148.093 59.3167 152.895 56.142C160.285 51.256 159.929 37.2797 151.985 33.179C147.278 30.7493 140.154 32 135 32z"/>
<path style="fill:#6b6b6b; stroke:none;" d="M151 32L152 33L151 32z"/>
<path style="fill:#505050; stroke:none;" d="M153 33L154 34L153 33M403 33L403 38L404 38L403 33z"/>
<path style="fill:#fdfdfd; stroke:none;" d="M404 33L401 38L401 41L404 41C404 48.7765 401.917 57.6716 412 58L408 41L412 41L412 38L408 38L408 33L404 33z"/>
<path style="fill:#6b6b6b; stroke:none;" d="M154 34L155 35L154 34z"/>
<path style="fill:#a6a6a6; stroke:none;" d="M139 35L140 36L139 35z"/>
<path style="fill:#505050; stroke:none;" d="M140 35L140 36L147 36L140 35z"/>
<path style="fill:#6b6b6b; stroke:none;" d="M147 35L148 36L147 35z"/>
<path style="fill:#a6a6a6; stroke:none;" d="M148 35L149 36L148 35M155 35L156 36L155 35z"/>
<path style="fill:#6b6b6b; stroke:none;" d="M139 36L139 54L140 54L139 36z"/>
<path style="fill:#010101; stroke:none;" d="M140 36L140 54C157.561 53.9884 157.561 36.0116 140 36z"/>
<path style="fill:#505050; stroke:none;" d="M149 36L150 37L149 36z"/>
<path style="fill:#a6a6a6; stroke:none;" d="M150 36L151 37L150 36z"/>
<path style="fill:#505050; stroke:none;" d="M156 36L157 37L156 36z"/>
<path style="fill:#a6a6a6; stroke:none;" d="M151 37L152 38L151 37z"/>
<path style="fill:#505050; stroke:none;" d="M172 37L172 38L175 38L172 37M229 37L229 38L234 38L229 37M264 37L264 38L267 38L264 37M288 37L288 38L292 38L288 37M311 37L311 38L314 38L311 37M349 37L349 38L352 38L349 37M375 37L375 38L379 38L375 37M427 37L427 38L431 38L427 37M450 37L450 38L454 38L450 37M94 38L95 39L94 38z"/>
<path style="fill:#6b6b6b; stroke:none;" d="M95 38L96 39L95 38z"/>
<path style="fill:#a6a6a6; stroke:none;" d="M96 38L97 39L96 38z"/>
<path style="fill:#505050; stroke:none;" d="M97 38L97 42L98 42L97 38z"/>
<path style="fill:#a6a6a6; stroke:none;" d="M152 38L153 39L152 38z"/>
<path style="fill:#6b6b6b; stroke:none;" d="M157 38L158 39L157 38M169 38L170 39L169 38z"/>
<path style="fill:#fdfdfd; stroke:none;" d="M170.015 38.7431C158.628 43.1722 164.744 62.4544 176.985 57.8372C188.42 53.5237 182.047 34.0635 170.015 38.7431z"/>
<path style="fill:#6b6b6b; stroke:none;" d="M177 38L178 39L177 38z"/>
<path style="fill:#505050; stroke:none;" d="M186 38L187 39L186 38z"/>
<path style="fill:#fdfdfd; stroke:none;" d="M187 38L192 58L197 58L201 43C202.552 46.6064 203.151 54.6663 206.519 56.9136C211.721 60.3841 214.731 41.08 215 38C209.553 39.9139 209.423 48.9495 208 54C205.679 48.6072 205.709 39.1642 199 38L195 54L191 38L187 38z"/>
<path style="fill:#6b6b6b; stroke:none;" d="M203 38L204 39L203 38z"/>
<path style="fill:#505050; stroke:none;" d="M211 38L212 39L211 38z"/>
<path style="fill:#a6a6a6; stroke:none;" d="M215 38L216 39L215 38z"/>
<path style="fill:#fdfdfd; stroke:none;" d="M221 38L221 58L225 58C225 54.7208 226.915 33.1211 233.821 44.2323C236.074 47.8564 235 53.9086 235 58L239 58C239 48.6142 238.723 31.9436 225 41L221 38z"/>
<path style="fill:#505050; stroke:none;" d="M227 38L228 39L227 38z"/>
<path style="fill:#a6a6a6; stroke:none;" d="M228 38L229 39L228 38z"/>
<path style="fill:#6b6b6b; stroke:none;" d="M235 38L236 39L235 38M261 38L262 39L261 38z"/>
<path style="fill:#fdfdfd; stroke:none;" d="M262.015 38.7431C250.702 43.1434 256.961 62.3725 268.985 57.8372C280.42 53.5237 274.047 34.0635 262.015 38.7431z"/>
<path style="fill:#6b6b6b; stroke:none;" d="M269 38L270 39L269 38z"/>
<path style="fill:#505050; stroke:none;" d="M284 38L285 39L284 38z"/>
<path style="fill:#a6a6a6; stroke:none;" d="M285 38L286 39L285 38z"/>
<path style="fill:#fdfdfd; stroke:none;" d="M281 43C286.871 42.2852 291.876 39.6784 294 47C290.335 47.0024 285.51 46.4126 282.518 49.0093C274.273 56.1637 288.77 58.6253 294 56L298 58C298 48.2666 293.221 27.5828 281 43z"/>
<path style="fill:#a6a6a6; stroke:none;" d="M293 38L294 39L293 38z"/>
<path style="fill:#505050; stroke:none;" d="M294 38L295 39L294 38z"/>
<path style="fill:#6b6b6b; stroke:none;" d="M308 38L309 39L308 38z"/>
<path style="fill:#a6a6a6; stroke:none;" d="M315 38L316 39L315 38z"/>
<path style="fill:#6b6b6b; stroke:none;" d="M346 38L347 39L346 38z"/>
<path style="fill:#fdfdfd; stroke:none;" d="M347.015 38.7431C335.628 43.1722 341.744 62.4544 353.985 57.8372C365.42 53.5237 359.047 34.0635 347.015 38.7431z"/>
<path style="fill:#6b6b6b; stroke:none;" d="M354 38L355 39L354 38z"/>
<path style="fill:#a6a6a6; stroke:none;" d="M366 38L367 39L366 38z"/>
<path style="fill:#fdfdfd; stroke:none;" d="M366 58L370 58C370 54.8296 370.835 34.8741 378.397 43.3372C381.358 46.6512 380 53.8813 380 58L384 58C384 48.3757 384.157 31.6572 370 41C369.355 38.0042 366.864 37.5432 366.111 41.0278C364.988 46.2284 366 52.6754 366 58z"/>
<path style="fill:#505050; stroke:none;" d="M370 38L370 41L372 40L372 39L370 38z"/>
<path style="fill:#a6a6a6; stroke:none;" d="M373 38L374 39L373 38M380 38L381 39L380 38M400 38L404 42L404 41L400 38z"/>
<path style="fill:#6b6b6b; stroke:none;" d="M412 38L412 41L413 41L412 38z"/>
<path style="fill:#a6a6a6; stroke:none;" d="M425 38L426 39L425 38M432 38L433 39L432 38z"/>
<path style="fill:#6b6b6b; stroke:none;" d="M447 38L448 39L447 38z"/>
<path style="fill:#fdfdfd; stroke:none;" d="M460 53C453.705 54.4182 448.348 57.1633 446 49L461 49C460.002 37.997 444.845 33.0276 442.348 46.0008C440.187 57.2289 454.689 63.7665 460 53z"/>
<path style="fill:#a6a6a6; stroke:none;" d="M455 38L456 39L455 38z"/>
<path style="fill:#505050; stroke:none;" d="M456 38L457 39L456 38M91 39L92 40L91 39z"/>
<path style="fill:#a6a6a6; stroke:none;" d="M92 39L93 40L92 39z"/>
<path style="fill:#fdfdfd; stroke:none;" d="M80 59C90.371 56.2802 96.4961 50.0268 97 39C86.0062 40.1261 80.0946 48.4244 80 59z"/>
<path style="fill:#505050; stroke:none;" d="M167 39L168 40L167 39M179 39L180 40L179 39z"/>
<path style="fill:#a6a6a6; stroke:none;" d="M203 39L204 40L203 39M211 39L212 40L211 39z"/>
<path style="fill:#6b6b6b; stroke:none;" d="M215 39L216 40L215 39M226 39L227 40L226 39z"/>
<path style="fill:#a6a6a6; stroke:none;" d="M236 39L237 40L236 39z"/>
<path style="fill:#505050; stroke:none;" d="M259 39L260 40L259 39z"/>
<path style="fill:#6b6b6b; stroke:none;" d="M271 39L272 40L271 39z"/>
<path style="fill:#a6a6a6; stroke:none;" d="M283 39L284 40L283 39M295 39L296 40L295 39z"/>
<path style="fill:#505050; stroke:none;" d="M306 39L307 40L306 39M317 39L318 40L317 39M344 39L345 40L344 39M356 39L357 40L356 39M382 39L383 40L382 39z"/>
<path style="fill:#a6a6a6; stroke:none;" d="M424 39L425 40L424 39z"/>
<path style="fill:#505050; stroke:none;" d="M434 39L435 40L434 39M445 39L446 40L445 39z"/>
<path style="fill:#a6a6a6; stroke:none;" d="M457 39L458 40L457 39z"/>
<path style="fill:#505050; stroke:none;" d="M89 40L90 41L89 40z"/>
<path style="fill:#a6a6a6; stroke:none;" d="M90 40L91 41L90 40M153 40L154 41L153 40z"/>
<path style="fill:#505050; stroke:none;" d="M158 40L159 41L158 40z"/>
<path style="fill:#a6a6a6; stroke:none;" d="M166 40L167 41L166 40z"/>
<path style="fill:#6b6b6b; stroke:none;" d="M180 40L181 41L180 40z"/>
<path style="fill:#a6a6a6; stroke:none;" d="M187 40L188 41L187 40z"/>
<path style="fill:#6b6b6b; stroke:none;" d="M191 40L192 41L191 40M198 40L199 41L198 40z"/>
<path style="fill:#505050; stroke:none;" d="M215 40L216 41L215 40M225 40L226 41L225 40z"/>
<path style="fill:#a6a6a6; stroke:none;" d="M237 40L238 41L237 40z"/>
<path style="fill:#6b6b6b; stroke:none;" d="M258 40L259 41L258 40z"/>
<path style="fill:#a6a6a6; stroke:none;" d="M272 40L273 41L272 40M282 40L283 41L282 40M296 40L297 41L296 40z"/>
<path style="fill:#505050; stroke:none;" d="M305 40L306 41L305 40z"/>
<path style="fill:#6b6b6b; stroke:none;" d="M343 40L344 41L343 40z"/>
<path style="fill:#a6a6a6; stroke:none;" d="M357 40L358 41L357 40M423 40L424 41L423 40z"/>
<path style="fill:#505050; stroke:none;" d="M435 40L436 41L435 40z"/>
<path style="fill:#6b6b6b; stroke:none;" d="M444 40L445 41L444 40z"/>
<path style="fill:#a6a6a6; stroke:none;" d="M458 40L459 41L458 40M88 41L89 42L88 41z"/>
<path style="fill:#505050; stroke:none;" d="M153 41L154 42L153 41z"/>
<path style="fill:#6b6b6b; stroke:none;" d="M158 41L159 42L158 41M165 41L166 42L165 41z"/>
<path style="fill:#a6a6a6; stroke:none;" d="M171 41L172 42L171 41z"/>
<path style="fill:#505050; stroke:none;" d="M172 41L172 42L175 42L172 41z"/>
<path style="fill:#a6a6a6; stroke:none;" d="M175 41L176 42L175 41z"/>
<path style="fill:#6b6b6b; stroke:none;" d="M181 41L182 42L181 41M187 41L188 42L187 41z"/>
<path style="fill:#a6a6a6; stroke:none;" d="M191 41L192 42L191 41M198 41L199 42L198 41z"/>
<path style="fill:#505050; stroke:none;" d="M204 41L205 42L204 41z"/>
<path style="fill:#a6a6a6; stroke:none;" d="M228 41L229 42L228 41z"/>
<path style="fill:#6b6b6b; stroke:none;" d="M229.667 41.3333L230.333 41.6667L229.667 41.3333z"/>
<path style="fill:#a6a6a6; stroke:none;" d="M231 41L232 42L231 41z"/>
<path style="fill:#505050; stroke:none;" d="M238 41L239 42L238 41M257 41L258 42L257 41z"/>
<path style="fill:#a6a6a6; stroke:none;" d="M263 41L264 42L263 41z"/>
<path style="fill:#505050; stroke:none;" d="M264 41L264 42L267 42L264 41z"/>
<path style="fill:#a6a6a6; stroke:none;" d="M267 41L268 42L267 41z"/>
<path style="fill:#6b6b6b; stroke:none;" d="M273 41L274 42L273 41M281 41L282 42L281 41z"/>
<path style="fill:#a6a6a6; stroke:none;" d="M286 41L287 42L286 41z"/>
<path style="fill:#6b6b6b; stroke:none;" d="M287 41L288 42L287 41z"/>
<path style="fill:#505050; stroke:none;" d="M288 41L288 42L291 42L288 41z"/>
<path style="fill:#6b6b6b; stroke:none;" d="M291 41L292 42L291 41z"/>
<path style="fill:#505050; stroke:none;" d="M297 41L298 42L297 41z"/>
<path style="fill:#a6a6a6; stroke:none;" d="M311 41L312 42L311 41z"/>
<path style="fill:#6b6b6b; stroke:none;" d="M312 41L312 42L315 42L312 41z"/>
<path style="fill:#a6a6a6; stroke:none;" d="M315 41L316 42L315 41z"/>
<path style="fill:#6b6b6b; stroke:none;" d="M342 41L343 42L342 41z"/>
<path style="fill:#a6a6a6; stroke:none;" d="M348 41L349 42L348 41z"/>
<path style="fill:#505050; stroke:none;" d="M349 41L349 42L352 42L349 41z"/>
<path style="fill:#a6a6a6; stroke:none;" d="M352 41L353 42L352 41z"/>
<path style="fill:#6b6b6b; stroke:none;" d="M358 41L359 42L358 41z"/>
<path style="fill:#a6a6a6; stroke:none;" d="M373 41L374 42L373 41z"/>
<path style="fill:#6b6b6b; stroke:none;" d="M374 41L374 42L377 42L374 41z"/>
<path style="fill:#a6a6a6; stroke:none;" d="M377 41L378 42L377 41M383 41L384 42L383 41z"/>
<path style="fill:#6b6b6b; stroke:none;" d="M400 41L401 42L400 41z"/>
<path style="fill:#a6a6a6; stroke:none;" d="M408 41L408 42L412 42L408 41z"/>
<path style="fill:#505050; stroke:none;" d="M412 41L413 42L412 41z"/>
<path style="fill:#a6a6a6; stroke:none;" d="M425.667 41.3333L426.333 41.6667L425.667 41.3333z"/>
<path style="fill:#6b6b6b; stroke:none;" d="M427.667 41.3333L428.333 41.6667L427.667 41.3333z"/>
<path style="fill:#a6a6a6; stroke:none;" d="M429 41L430 42L429 41M435 41L436 42L435 41z"/>
<path style="fill:#505050; stroke:none;" d="M443 41L444 42L443 41z"/>
<path style="fill:#a6a6a6; stroke:none;" d="M449 41L450 42L449 41z"/>
<path style="fill:#505050; stroke:none;" d="M450 41L451 42L450 41z"/>
<path style="fill:#010101; stroke:none;" d="M447 46L456 46C454.211 40.4955 449.426 41.4205 447 46z"/>
<path style="fill:#505050; stroke:none;" d="M452 41L453 42L452 41z"/>
<path style="fill:#6b6b6b; stroke:none;" d="M453 41L454 42L453 41M459 41L460 42L459 41z"/>
<path style="fill:#505050; stroke:none;" d="M86 42L87 43L86 42z"/>
<path style="fill:#a6a6a6; stroke:none;" d="M158 42L158 45L159 45L158 42z"/>
<path style="fill:#505050; stroke:none;" d="M164 42L165 43L164 42M170 42L171 43L170 42z"/>
<path style="fill:#010101; stroke:none;" d="M171.278 42.7577C165.183 45.4746 169.258 57.6164 175.772 53.9529C181.483 50.7415 178.208 39.6684 171.278 42.7577z"/>
<path style="fill:#505050; stroke:none;" d="M176 42L177 43L176 42M187 42L188 43L187 42z"/>
<path style="fill:#6b6b6b; stroke:none;" d="M204 42L205 43L204 42z"/>
<path style="fill:#505050; stroke:none;" d="M210 42L211 43L210 42z"/>
<path style="fill:#a6a6a6; stroke:none;" d="M214 42L215 43L214 42M226 42L227 43L226 42M233 42L234 43L233 42M238 42L239 43L238 42z"/>
<path style="fill:#505050; stroke:none;" d="M262 42L261 44L262 42z"/>
<path style="fill:#010101; stroke:none;" d="M263.228 43.0324C257.714 46.3045 261.442 57.5171 267.772 53.9529C273.616 50.6631 270.127 38.9382 263.228 43.0324z"/>
<path style="fill:#505050; stroke:none;" d="M274 42L275 43L274 42z"/>
<path style="fill:#6b6b6b; stroke:none;" d="M285 42L286 43L285 42z"/>
<path style="fill:#a6a6a6; stroke:none;" d="M297 42L297 45L298 45L297 42z"/>
<path style="fill:#6b6b6b; stroke:none;" d="M304 42L305 43L304 42z"/>
<path style="fill:#505050; stroke:none;" d="M310 42L311 43L310 42z"/>
<path style="fill:#010101; stroke:none;" d="M311.228 42.7616C305.532 45.1401 308.524 56.4294 314.87 54.338C321.44 52.1728 318.258 39.8257 311.228 42.7616z"/>
<path style="fill:#6b6b6b; stroke:none;" d="M316 42L317 43L316 42z"/>
<path style="fill:#505050; stroke:none;" d="M347 42L348 43L347 42z"/>
<path style="fill:#010101; stroke:none;" d="M348.278 42.7577C342.183 45.4747 346.258 57.6164 352.772 53.9529C358.483 50.7415 355.208 39.6684 348.278 42.7577z"/>
<path style="fill:#505050; stroke:none;" d="M353 42L354 43L353 42M359 42L360 43L359 42M372 42L373 43L372 42z"/>
<path style="fill:#6b6b6b; stroke:none;" d="M378 42L379 43L378 42z"/>
<path style="fill:#505050; stroke:none;" d="M403 42L403 54L404 54L403 42M424 42L425 43L424 42M430 42L431 43L430 42M436 42L437 43L436 42M448 42L449 43L448 42z"/>
<path style="fill:#a6a6a6; stroke:none;" d="M455 42L456 43L455 42z"/>
<path style="fill:#505050; stroke:none;" d="M85 43L86 44L85 43z"/>
<path style="fill:#a6a6a6; stroke:none;" d="M164 43L165 44L164 43M182 43L183 44L182 43z"/>
<path style="fill:#505050; stroke:none;" d="M197 43L198 44L197 43z"/>
<path style="fill:#a6a6a6; stroke:none;" d="M201 43L200 45L201 43M204 43L205 44L204 43M210.333 43.6667L210.667 44.3333L210.333 43.6667z"/>
<path style="fill:#6b6b6b; stroke:none;" d="M214 43L215 44L214 43z"/>
<path style="fill:#a6a6a6; stroke:none;" d="M256 43L257 44L256 43M274 43L275 44L274 43z"/>
<path style="fill:#6b6b6b; stroke:none;" d="M281 43L281 44L285 44L281 43z"/>
<path style="fill:#a6a6a6; stroke:none;" d="M293 43L294 44L293 43z"/>
<path style="fill:#505050; stroke:none;" d="M317 43L318 44L317 43z"/>
<path style="fill:#a6a6a6; stroke:none;" d="M341 43L342 44L341 43M359 43L360 44L359 43z"/>
<path style="fill:#505050; stroke:none;" d="M371 43L372 44L371 43z"/>
<path style="fill:#a6a6a6; stroke:none;" d="M379 43L380 44L379 43z"/>
<path style="fill:#505050; stroke:none;" d="M384 43L384 58L385 58L384 43M423 43L424 44L423 43z"/>
<path style="fill:#6b6b6b; stroke:none;" d="M431 43L432 44L431 43M436 43L436 58L437 58L436 43M442 43L443 44L442 43z"/>
<path style="fill:#505050; stroke:none;" d="M447 43L448 44L447 43z"/>
<path style="fill:#6b6b6b; stroke:none;" d="M460 43L461 44L460 43z"/>
<path style="fill:#505050; stroke:none;" d="M84 44L85 45L84 44z"/>
<path style="fill:#a6a6a6; stroke:none;" d="M96 44L97 45L96 44M168 44L169 45L168 44M178 44L179 45L178 44M188 44L189 45L188 44z"/>
<path style="fill:#505050; stroke:none;" d="M192 44L193 45L192 44z"/>
<path style="fill:#a6a6a6; stroke:none;" d="M197.333 44.6667L197.667 45.3333L197.333 44.6667z"/>
<path style="fill:#505050; stroke:none;" d="M201 44L202 45L201 44z"/>
<path style="fill:#6b6b6b; stroke:none;" d="M225 44L226 45L225 44z"/>
<path style="fill:#a6a6a6; stroke:none;" d="M234 44L235 45L234 44M260 44L261 45L260 44z"/>
<path style="fill:#6b6b6b; stroke:none;" d="M270 44L271 45L270 44z"/>
<path style="fill:#505050; stroke:none;" d="M293.333 44.6667L293.667 45.3333L293.333 44.6667M303 44L304 45L303 44z"/>
<path style="fill:#6b6b6b; stroke:none;" d="M308 44L309 45L308 44z"/>
<path style="fill:#a6a6a6; stroke:none;" d="M318 44L319 45L318 44M345 44L346 45L345 44M355 44L356 45L355 44M370 44L371 45L370 44z"/>
<path style="fill:#505050; stroke:none;" d="M379 44L380 45L379 44z"/>
<path style="fill:#a6a6a6; stroke:none;" d="M422 44L423 45L422 44M442 44L443 45L442 44M446 44L447 45L446 44z"/>
<path style="fill:#6b6b6b; stroke:none;" d="M456 44L457 45L456 44z"/>
<path style="fill:#a6a6a6; stroke:none;" d="M460 44L461 45L460 44z"/>
<path style="fill:#505050; stroke:none;" d="M83 45L84 46L83 45z"/>
<path style="fill:#6b6b6b; stroke:none;" d="M96 45L97 46L96 45M158.333 45.6667L158.667 46.3333L158.333 45.6667z"/>
<path style="fill:#505050; stroke:none;" d="M163 45L164 46L163 45M168 45L169 46L168 45M178 45L179 46L178 45M183 45L184 46L183 45M188 45L189 46L188 45z"/>
<path style="fill:#a6a6a6; stroke:none;" d="M192.333 45.6667L192.667 46.3333L192.333 45.6667z"/>
<path style="fill:#6b6b6b; stroke:none;" d="M200 45L201 46L200 45z"/>
<path style="fill:#505050; stroke:none;" d="M205 45L206 46L205 45z"/>
<path style="fill:#a6a6a6; stroke:none;" d="M213.333 45.6667L213.667 46.3333L213.333 45.6667z"/>
<path style="fill:#505050; stroke:none;" d="M225 45L226 46L225 45z"/>
<path style="fill:#6b6b6b; stroke:none;" d="M234 45L235 46L234 45z"/>
<path style="fill:#505050; stroke:none;" d="M255.333 45.6667L255.667 46.3333L255.333 45.6667M260 45L261 46L260 45z"/>
<path style="fill:#6b6b6b; stroke:none;" d="M275.333 45.6667L275.667 46.3333L275.333 45.6667M303.333 45.6667L303.667 46.3333L303.333 45.6667M318 45L319 46L318 45z"/>
<path style="fill:#505050; stroke:none;" d="M340 45L341 46L340 45M345 45L346 46L345 45M355 45L356 46L355 45M360 45L361 46L360 45z"/>
<path style="fill:#6b6b6b; stroke:none;" d="M370 45L371 46L370 45M422.333 45.6667L422.667 46.3333L422.333 45.6667z"/>
<path style="fill:#505050; stroke:none;" d="M446 45L447 46L446 45M456 45L457 46L456 45z"/>
<path style="fill:#6b6b6b; stroke:none;" d="M163 46L163 51L164 51L163 46M183 46L183 51L184 51L183 46z"/>
<path style="fill:#505050; stroke:none;" d="M200 46L201 47L200 46z"/>
<path style="fill:#a6a6a6; stroke:none;" d="M202 46L203 47L202 46M205 46L206 47L205 46z"/>
<path style="fill:#505050; stroke:none;" d="M209 46L210 47L209 46M234 46L234 59L235 59L234 46M287 46L288 47L287 46z"/>
<path style="fill:#6b6b6b; stroke:none;" d="M288 46L288 47L291 47L288 46z"/>
<path style="fill:#a6a6a6; stroke:none;" d="M291 46L291 47L294 47L291 46z"/>
<path style="fill:#505050; stroke:none;" d="M318 46L319 47L318 46z"/>
<path style="fill:#6b6b6b; stroke:none;" d="M340 46L340 51L341 51L340 46M360 46L360 51L361 51L360 46z"/>
<path style="fill:#505050; stroke:none;" d="M370 46L370 59L371 59L370 46z"/>
<path style="fill:#a6a6a6; stroke:none;" d="M432 46C432 50.8447 430.535 57.1862 436 59L436 58L433 58L432 46z"/>
<path style="fill:#505050; stroke:none;" d="M441 46L442 47L441 46z"/>
<path style="fill:#a6a6a6; stroke:none;" d="M446 46L446 47L457 47L446 46M82 47L83 48L82 47M95 47L96 48L95 47z"/>
<path style="fill:#505050; stroke:none;" d="M158.333 47.6667L158.667 48.3333L158.333 47.6667z"/>
<path style="fill:#a6a6a6; stroke:none;" d="M189 47L190 48L189 47z"/>
<path style="fill:#6b6b6b; stroke:none;" d="M196 47L197 48L196 47M202 47L203 48L202 47M209 47L210 48L209 47z"/>
<path style="fill:#505050; stroke:none;" d="M213 47L214 48L213 47z"/>
<path style="fill:#6b6b6b; stroke:none;" d="M255.333 47.6667L255.667 48.3333L255.333 47.6667z"/>
<path style="fill:#a6a6a6; stroke:none;" d="M271.333 47.6667L271.667 48.3333L271.333 47.6667M275 47L275 50L276 50L275 47z"/>
<path style="fill:#505050; stroke:none;" d="M283 47L284 48L283 47z"/>
<path style="fill:#a6a6a6; stroke:none;" d="M284 47L285 48L284 47M303 47L303 50L304 50L303 47M307.333 47.6667L307.667 48.3333L307.333 47.6667z"/>
<path style="fill:#505050; stroke:none;" d="M422 47L422 59L423 59L422 47M81 48L82 49L81 48M95 48L96 49L95 48M153 48L154 49L153 48z"/>
<path style="fill:#6b6b6b; stroke:none;" d="M189 48L190 49L189 48z"/>
<path style="fill:#505050; stroke:none;" d="M193 48L194 49L193 48z"/>
<path style="fill:#a6a6a6; stroke:none;" d="M196 48L197 49L196 48M199 48L200 49L199 48z"/>
<path style="fill:#505050; stroke:none;" d="M202 48L203 49L202 48M206 48L207 49L206 48z"/>
<path style="fill:#a6a6a6; stroke:none;" d="M209 48L210 49L209 48M282 48L283 49L282 48M356 48L357 49L356 48M81 49L82 50L81 49M153 49L154 50L153 49z"/>
<path style="fill:#505050; stroke:none;" d="M189 49L190 50L189 49z"/>
<path style="fill:#a6a6a6; stroke:none;" d="M193.333 49.6667L193.667 50.3333L193.333 49.6667z"/>
<path style="fill:#505050; stroke:none;" d="M199 49L200 50L199 49z"/>
<path style="fill:#6b6b6b; stroke:none;" d="M206 49L207 50L206 49z"/>
<path style="fill:#a6a6a6; stroke:none;" d="M212 49L213 50L212 49z"/>
<path style="fill:#505050; stroke:none;" d="M255.333 49.6667L255.667 50.3333L255.333 49.6667z"/>
<path style="fill:#a6a6a6; stroke:none;" d="M287 49L287 50L290 50L287 49z"/>
<path style="fill:#6b6b6b; stroke:none;" d="M290 49L290 50L293 50L290 49z"/>
<path style="fill:#a6a6a6; stroke:none;" d="M293 49L294 50L293 49z"/>
<path style="fill:#505050; stroke:none;" d="M441 49L442 50L441 49z"/>
<path style="fill:#6b6b6b; stroke:none;" d="M446 49L446 50L461 50L446 49z"/>
<path style="fill:#505050; stroke:none;" d="M94 50L95 51L94 50z"/>
<path style="fill:#a6a6a6; stroke:none;" d="M157 50L158 51L157 50z"/>
<path style="fill:#505050; stroke:none;" d="M195 50L196 51L195 50z"/>
<path style="fill:#a6a6a6; stroke:none;" d="M203 50L204 51L203 50M206 50L207 51L206 50z"/>
<path style="fill:#505050; stroke:none;" d="M208 50L209 51L208 50z"/>
<path style="fill:#6b6b6b; stroke:none;" d="M212 50L213 51L212 50z"/>
<path style="fill:#505050; stroke:none;" d="M260 50L261 51L260 50z"/>
<path style="fill:#6b6b6b; stroke:none;" d="M275 50L276 51L275 50M280 50L281 51L280 50M285 50L284 52L285 50z"/>
<path style="fill:#010101; stroke:none;" d="M293 50C280.634 50.1466 290.325 58.8101 293 50z"/>
<path style="fill:#505050; stroke:none;" d="M293 50L294 51L293 50z"/>
<path style="fill:#6b6b6b; stroke:none;" d="M303 50L304 51L303 50z"/>
<path style="fill:#505050; stroke:none;" d="M318 50L319 51L318 50z"/>
<path style="fill:#a6a6a6; stroke:none;" d="M80 51L81 52L80 51z"/>
<path style="fill:#6b6b6b; stroke:none;" d="M93 51L94 52L93 51z"/>
<path style="fill:#a6a6a6; stroke:none;" d="M152 51L153 52L152 51z"/>
<path style="fill:#505050; stroke:none;" d="M157 51L158 52L157 51M163 51L164 52L163 51M168 51L169 52L168 51M178 51L179 52L178 51M183 51L184 52L183 51z"/>
<path style="fill:#a6a6a6; stroke:none;" d="M190 51L191 52L190 51z"/>
<path style="fill:#6b6b6b; stroke:none;" d="M195 51L196 52L195 51z"/>
<path style="fill:#a6a6a6; stroke:none;" d="M198 51L199 52L198 51z"/>
<path style="fill:#505050; stroke:none;" d="M203 51L204 52L203 51z"/>
<path style="fill:#6b6b6b; stroke:none;" d="M208 51L209 52L208 51M260 51L261 52L260 51z"/>
<path style="fill:#505050; stroke:none;" d="M270 51L271 52L270 51M275 51L276 52L275 51z"/>
<path style="fill:#a6a6a6; stroke:none;" d="M280 51L281 52L280 51z"/>
<path style="fill:#6b6b6b; stroke:none;" d="M293 51L294 52L293 51z"/>
<path style="fill:#505050; stroke:none;" d="M303 51L304 52L303 51M308 51L309 52L308 51z"/>
<path style="fill:#6b6b6b; stroke:none;" d="M318 51L319 52L318 51z"/>
<path style="fill:#505050; stroke:none;" d="M340 51L341 52L340 51M345 51L346 52L345 51M355 51L356 52L355 51M360 51L361 52L360 51M446 51L447 52L446 51z"/>
<path style="fill:#a6a6a6; stroke:none;" d="M92 52L93 53L92 52M151 52L152 53L151 52M156 52L157 53L156 52M168 52L169 53L168 52M178 52L179 53L178 52z"/>
<path style="fill:#505050; stroke:none;" d="M190 52L191 53L190 52M194 52L195 53L194 52z"/>
<path style="fill:#a6a6a6; stroke:none;" d="M195 52L196 53L195 52z"/>
<path style="fill:#6b6b6b; stroke:none;" d="M198 52L199 53L198 52z"/>
<path style="fill:#505050; stroke:none;" d="M207 52L208 53L207 52z"/>
<path style="fill:#a6a6a6; stroke:none;" d="M208 52L209 53L208 52M256 52L257 53L256 52M270 52L271 53L270 52z"/>
<path style="fill:#505050; stroke:none;" d="M284 52L285 53L284 52z"/>
<path style="fill:#a6a6a6; stroke:none;" d="M293 52L294 53L293 52M308 52L309 53L308 52M345 52L346 53L345 52M355 52L356 53L355 52M442 52L443 53L442 52M446 52L447 53L446 52M91 53L92 54L91 53z"/>
<path style="fill:#505050; stroke:none;" d="M149 53L150 54L149 53M156 53L157 54L156 53z"/>
<path style="fill:#6b6b6b; stroke:none;" d="M164 53L165 54L164 53z"/>
<path style="fill:#505050; stroke:none;" d="M169 53L170 54L169 53M177 53L178 54L177 53z"/>
<path style="fill:#6b6b6b; stroke:none;" d="M182 53L183 54L182 53z"/>
<path style="fill:#a6a6a6; stroke:none;" d="M194 53L195 54L194 53M204 53L205 54L204 53M207 53L208 54L207 53M211 53L212 54L211 53z"/>
<path style="fill:#6b6b6b; stroke:none;" d="M256 53L257 54L256 53M261 53L262 54L261 53z"/>
<path style="fill:#505050; stroke:none;" d="M269 53L270 54L269 53z"/>
<path style="fill:#a6a6a6; stroke:none;" d="M274 53L275 54L274 53z"/>
<path style="fill:#6b6b6b; stroke:none;" d="M284 53L285 54L284 53z"/>
<path style="fill:#505050; stroke:none;" d="M292 53L293 54L292 53z"/>
<path style="fill:#a6a6a6; stroke:none;" d="M304 53L305 54L304 53z"/>
<path style="fill:#505050; stroke:none;" d="M309 53L310 54L309 53z"/>
<path style="fill:#a6a6a6; stroke:none;" d="M317 53L318 54L317 53z"/>
<path style="fill:#6b6b6b; stroke:none;" d="M341 53L342 54L341 53M346 53L347 54L346 53z"/>
<path style="fill:#505050; stroke:none;" d="M354 53L355 54L354 53z"/>
<path style="fill:#6b6b6b; stroke:none;" d="M359 53L360 54L359 53z"/>
<path style="fill:#505050; stroke:none;" d="M442 53L443 54L442 53z"/>
<path style="fill:#6b6b6b; stroke:none;" d="M447 53L448 54L447 53M456 53L457 54L456 53z"/>
<path style="fill:#a6a6a6; stroke:none;" d="M460 53L461 54L460 53z"/>
<path style="fill:#505050; stroke:none;" d="M79 54L80 55L79 54z"/>
<path style="fill:#a6a6a6; stroke:none;" d="M90 54L91 55L90 54M139 54L140 55L139 54z"/>
<path style="fill:#505050; stroke:none;" d="M140 54L140 55L147 55L140 54z"/>
<path style="fill:#6b6b6b; stroke:none;" d="M147 54L148 55L147 54z"/>
<path style="fill:#a6a6a6; stroke:none;" d="M148 54L149 55L148 54z"/>
<path style="fill:#6b6b6b; stroke:none;" d="M155 54L156 55L155 54M170 54L171 55L170 54M176 54L177 55L176 54z"/>
<path style="fill:#a6a6a6; stroke:none;" d="M191 54L192 55L191 54z"/>
<path style="fill:#6b6b6b; stroke:none;" d="M204 54L205 55L204 54z"/>
<path style="fill:#505050; stroke:none;" d="M211 54L212 55L211 54z"/>
<path style="fill:#a6a6a6; stroke:none;" d="M257 54L258 55L257 54M262 54L263 55L262 54z"/>
<path style="fill:#6b6b6b; stroke:none;" d="M268 54L269 55L268 54z"/>
<path style="fill:#a6a6a6; stroke:none;" d="M280 54L281 55L280 54z"/>
<path style="fill:#505050; stroke:none;" d="M285 54L286 55L285 54z"/>
<path style="fill:#6b6b6b; stroke:none;" d="M291 54L292 55L291 54z"/>
<path style="fill:#505050; stroke:none;" d="M304 54L305 55L304 54z"/>
<path style="fill:#6b6b6b; stroke:none;" d="M310 54L311 55L310 54z"/>
<path style="fill:#a6a6a6; stroke:none;" d="M316 54L317 55L316 54z"/>
<path style="fill:#6b6b6b; stroke:none;" d="M347 54L348 55L347 54M353 54L354 55L353 54z"/>
<path style="fill:#a6a6a6; stroke:none;" d="M408 54L409 55L408 54M443 54L444 55L443 54M448 54L449 55L448 54z"/>
<path style="fill:#6b6b6b; stroke:none;" d="M455 54L456 55L455 54z"/>
<path style="fill:#505050; stroke:none;" d="M460 54L461 55L460 54z"/>
<path style="fill:#6b6b6b; stroke:none;" d="M79.3333 55.6667L79.6667 56.3333L79.3333 55.6667z"/>
<path style="fill:#a6a6a6; stroke:none;" d="M89 55L90 56L89 55z"/>
<path style="fill:#6b6b6b; stroke:none;" d="M154 55L155 56L154 55z"/>
<path style="fill:#505050; stroke:none;" d="M165 55L166 56L165 55z"/>
<path style="fill:#a6a6a6; stroke:none;" d="M172 55L172 56L175 56L172 55z"/>
<path style="fill:#505050; stroke:none;" d="M181 55L182 56L181 55z"/>
<path style="fill:#6b6b6b; stroke:none;" d="M191 55L192 56L191 55z"/>
<path style="fill:#a6a6a6; stroke:none;" d="M197 55L198 56L197 55M264 55L264 56L267 56L264 55z"/>
<path style="fill:#505050; stroke:none;" d="M273 55L274 56L273 55M280 55L281 56L280 55z"/>
<path style="fill:#a6a6a6; stroke:none;" d="M286.667 55.3333L287.333 55.6667L286.667 55.3333z"/>
<path style="fill:#6b6b6b; stroke:none;" d="M288 55L289 56L288 55z"/>
<path style="fill:#a6a6a6; stroke:none;" d="M289 55L290 56L289 55M305 55L306 56L305 55M312 55L312 56L315 56L312 55M318 55L319 56L318 55z"/>
<path style="fill:#505050; stroke:none;" d="M342 55L343 56L342 55z"/>
<path style="fill:#a6a6a6; stroke:none;" d="M349 55L349 56L352 56L349 55z"/>
<path style="fill:#505050; stroke:none;" d="M358 55L359 56L358 55z"/>
<path style="fill:#a6a6a6; stroke:none;" d="M410.667 55.3333L411.333 55.6667L410.667 55.3333z"/>
<path style="fill:#6b6b6b; stroke:none;" d="M412 55L412 58L413 58L412 55z"/>
<path style="fill:#a6a6a6; stroke:none;" d="M450 55L451 56L450 55z"/>
<path style="fill:#6b6b6b; stroke:none;" d="M451.667 55.3333L452.333 55.6667L451.667 55.3333z"/>
<path style="fill:#a6a6a6; stroke:none;" d="M453 55L454 56L453 55M459 55L460 56L459 55z"/>
<path style="fill:#505050; stroke:none;" d="M88 56L89 57L88 56M153 56L154 57L153 56M166 56L167 57L166 56M180 56L181 57L180 56M191 56L192 57L191 56M197 56L198 57L197 56z"/>
<path style="fill:#a6a6a6; stroke:none;" d="M210 56L211 57L210 56z"/>
<path style="fill:#505050; stroke:none;" d="M272 56L273 57L272 56z"/>
<path style="fill:#a6a6a6; stroke:none;" d="M281 56L282 57L281 56M292 56L293 57L292 56z"/>
<path style="fill:#505050; stroke:none;" d="M293.333 56.6667L293.667 57.3333L293.333 56.6667z"/>
<path style="fill:#a6a6a6; stroke:none;" d="M306 56L307 57L306 56z"/>
<path style="fill:#505050; stroke:none;" d="M343 56L344 57L343 56M357 56L358 57L357 56z"/>
<path style="fill:#6b6b6b; stroke:none;" d="M404 56L405 57L404 56z"/>
<path style="fill:#505050; stroke:none;" d="M444 56L445 57L444 56z"/>
<path style="fill:#a6a6a6; stroke:none;" d="M458 56L459 57L458 56M79.3333 57.6667L79.6667 58.3333L79.3333 57.6667z"/>
<path style="fill:#6b6b6b; stroke:none;" d="M86 57L87 58L86 57z"/>
<path style="fill:#a6a6a6; stroke:none;" d="M150 57L151 58L150 57z"/>
<path style="fill:#6b6b6b; stroke:none;" d="M151 57L152 58L151 57z"/>
<path style="fill:#a6a6a6; stroke:none;" d="M168 57L169 58L168 57M178 57L179 58L178 57M205 57L205 58L210 59L210 58L205 57z"/>
<path style="fill:#6b6b6b; stroke:none;" d="M210 57L211 58L210 57z"/>
<path style="fill:#a6a6a6; stroke:none;" d="M260 57L261 58L260 57M270 57L271 58L270 57M282 57L283 58L282 57M291 57L292 58L291 57M307 57L308 58L307 57M316 57L317 58L316 57M345 57L346 58L345 57M355 57L356 58L355 57M405 57L406 58L405 57M446 57L447 58L446 57z"/>
<path style="fill:#6b6b6b; stroke:none;" d="M457 57L458 58L457 57z"/>
<path style="fill:#a6a6a6; stroke:none;" d="M81.6667 58.3333L82.3333 58.6667L81.6667 58.3333z"/>
<path style="fill:#6b6b6b; stroke:none;" d="M83 58L84 59L83 58z"/>
<path style="fill:#505050; stroke:none;" d="M84 58L85 59L84 58z"/>
<path style="fill:#6b6b6b; stroke:none;" d="M135 58L136 59L135 58z"/>
<path style="fill:#a6a6a6; stroke:none;" d="M136 58L136 59L146 59L136 58z"/>
<path style="fill:#6b6b6b; stroke:none;" d="M146.667 58.3333L147.333 58.6667L146.667 58.3333z"/>
<path style="fill:#505050; stroke:none;" d="M148 58L149 59L148 58z"/>
<path style="fill:#6b6b6b; stroke:none;" d="M170 58L171 59L170 58z"/>
<path style="fill:#a6a6a6; stroke:none;" d="M171 58L172 59L171 58M175 58L176 59L175 58z"/>
<path style="fill:#6b6b6b; stroke:none;" d="M176 58L177 59L176 58M192 58L193 59L192 58z"/>
<path style="fill:#a6a6a6; stroke:none;" d="M193 58L193 59L196 59L193 58z"/>
<path style="fill:#6b6b6b; stroke:none;" d="M196 58L197 59L196 58z"/>
<path style="fill:#505050; stroke:none;" d="M205 58L206 59L205 58z"/>
<path style="fill:#a6a6a6; stroke:none;" d="M221 58L221 59L225 59L221 58M235 58L235 59L239 59L235 58z"/>
<path style="fill:#505050; stroke:none;" d="M245 58L246 59L245 58z"/>
<path style="fill:#6b6b6b; stroke:none;" d="M249 58L250 59L249 58M262 58L263 59L262 58z"/>
<path style="fill:#a6a6a6; stroke:none;" d="M263 58L264 59L263 58M267.667 58.3333L268.333 58.6667L267.667 58.3333z"/>
<path style="fill:#505050; stroke:none;" d="M283 58L284 59L283 58z"/>
<path style="fill:#a6a6a6; stroke:none;" d="M284 58L285 59L284 58M289 58L290 59L289 58z"/>
<path style="fill:#505050; stroke:none;" d="M290 58L291 59L290 58z"/>
<path style="fill:#a6a6a6; stroke:none;" d="M294 58L294 59L297 59L294 58z"/>
<path style="fill:#6b6b6b; stroke:none;" d="M297 58L298 59L297 58z"/>
<path style="fill:#505050; stroke:none;" d="M308 58L309 59L308 58z"/>
<path style="fill:#6b6b6b; stroke:none;" d="M309 58L310 59L309 58z"/>
<path style="fill:#a6a6a6; stroke:none;" d="M310 58L311 59L310 58M314 58L315 59L314 58z"/>
<path style="fill:#505050; stroke:none;" d="M315 58L316 59L315 58z"/>
<path style="fill:#6b6b6b; stroke:none;" d="M319 58L320 59L319 58z"/>
<path style="fill:#a6a6a6; stroke:none;" d="M320 58L320 59L323 59L320 58z"/>
<path style="fill:#6b6b6b; stroke:none;" d="M347 58L348 59L347 58z"/>
<path style="fill:#a6a6a6; stroke:none;" d="M348 58L349 59L348 58M352 58L353 59L352 58z"/>
<path style="fill:#6b6b6b; stroke:none;" d="M353 58L354 59L353 58M366 58L367 59L366 58z"/>
<path style="fill:#a6a6a6; stroke:none;" d="M367 58L367 59L370 59L367 58M380 58L380 59L384 59L380 58z"/>
<path style="fill:#505050; stroke:none;" d="M406 58L407 59L406 58z"/>
<path style="fill:#6b6b6b; stroke:none;" d="M407 58L408 59L407 58z"/>
<path style="fill:#a6a6a6; stroke:none;" d="M408 58L408 59L412 59L408 58z"/>
<path style="fill:#505050; stroke:none;" d="M412 58L413 59L412 58z"/>
<path style="fill:#6b6b6b; stroke:none;" d="M418 58L419 59L418 58z"/>
<path style="fill:#a6a6a6; stroke:none;" d="M419 58L419 59L422 59L419 58z"/>
<path style="fill:#6b6b6b; stroke:none;" d="M432 58L433 59L432 58z"/>
<path style="fill:#505050; stroke:none;" d="M436 58L437 59L436 58M447 58L448 59L447 58z"/>
<path style="fill:#6b6b6b; stroke:none;" d="M448 58L449 59L448 58z"/>
<path style="fill:#a6a6a6; stroke:none;" d="M449 58L450 59L449 58z"/>
<path style="fill:#6b6b6b; stroke:none;" d="M455 58L456 59L455 58z"/>
<path style="fill:#505050; stroke:none;" d="M61 60L62 61L61 60z"/>
<path style="fill:#6b6b6b; stroke:none;" d="M62 60L63 61L62 60z"/>
<path style="fill:#a6a6a6; stroke:none;" d="M63 60L63 61L68 61L63 60z"/>
<path style="fill:#6b6b6b; stroke:none;" d="M68 60L69 61L68 60z"/>
<path style="fill:#505050; stroke:none;" d="M69 60L70 61L69 60z"/>
<path style="fill:#6b6b6b; stroke:none;" d="M91 60L92 61L91 60z"/>
<path style="fill:#a6a6a6; stroke:none;" d="M92.6667 60.3333L93.3333 60.6667L92.6667 60.3333z"/>
<path style="fill:#fdfdfd; stroke:none;" d="M113 69C103.536 56.1873 93.4959 62.8314 81 63.7747C72.0553 64.4499 65.1736 58.391 56.0008 63C33.9285 74.0903 43.3498 115.222 61.0039 126.258C67.9342 130.59 75.6327 124.502 83 125.108C95.858 126.166 101.472 130.153 109.91 117C118.662 103.356 107.815 103.433 104.558 91C102.236 82.1346 107.121 75.0205 113 69z"/>
<path style="fill:#a6a6a6; stroke:none;" d="M98 60L98 61L101 61L98 60z"/>
<path style="fill:#505050; stroke:none;" d="M101 60L102 61L101 60z"/>
<path style="fill:#6b6b6b; stroke:none;" d="M58 61L59 62L58 61z"/>
<path style="fill:#a6a6a6; stroke:none;" d="M59 61L60 62L59 61z"/>
<path style="fill:#6b6b6b; stroke:none;" d="M71 61L72 62L71 61z"/>
<path style="fill:#505050; stroke:none;" d="M87 61L88 62L87 61z"/>
<path style="fill:#6b6b6b; stroke:none;" d="M88 61L89 62L88 61z"/>
<path style="fill:#a6a6a6; stroke:none;" d="M103 61L104 62L103 61z"/>
<path style="fill:#505050; stroke:none;" d="M104 61L105 62L104 61z"/>
<path style="fill:#a6a6a6; stroke:none;" d="M56 62L57 63L56 62M73 62L74 63L73 62z"/>
<path style="fill:#6b6b6b; stroke:none;" d="M74 62L75 63L74 62M85 62L86 63L85 62z"/>
<path style="fill:#a6a6a6; stroke:none;" d="M86 62L87 63L86 62z"/>
<path style="fill:#6b6b6b; stroke:none;" d="M106 62L107 63L106 62M54 63L55 64L54 63z"/>
<path style="fill:#a6a6a6; stroke:none;" d="M76 63L77 64L76 63z"/>
<path style="fill:#505050; stroke:none;" d="M77 63L78 64L77 63M82 63L83 64L82 63z"/>
<path style="fill:#a6a6a6; stroke:none;" d="M83 63L84 64L83 63M107 63L108 64L107 63z"/>
<path style="fill:#505050; stroke:none;" d="M108 63L109 64L108 63z"/>
<path style="fill:#a6a6a6; stroke:none;" d="M53 64L54 65L53 64z"/>
<path style="fill:#6b6b6b; stroke:none;" d="M109 64L110 65L109 64z"/>
<path style="fill:#505050; stroke:none;" d="M51 65L52 66L51 65z"/>
<path style="fill:#a6a6a6; stroke:none;" d="M110 65L111 66L110 65z"/>
<path style="fill:#505050; stroke:none;" d="M50 66L51 67L50 66z"/>
<path style="fill:#6b6b6b; stroke:none;" d="M111 66L112 67L111 66z"/>
<path style="fill:#505050; stroke:none;" d="M49 67L50 68L49 67M112 67L113 68L112 67M113.333 68.6667L113.667 69.3333L113.333 68.6667z"/>
<path style="fill:#a6a6a6; stroke:none;" d="M48 69L49 70L48 69M112 69L113 70L112 69z"/>
<path style="fill:#6b6b6b; stroke:none;" d="M47 70L48 71L47 70z"/>
<path style="fill:#a6a6a6; stroke:none;" d="M111 70L112 71L111 70z"/>
<path style="fill:#6b6b6b; stroke:none;" d="M110 71L111 72L110 71z"/>
<path style="fill:#a6a6a6; stroke:none;" d="M46 72L47 73L46 72z"/>
<path style="fill:#6b6b6b; stroke:none;" d="M109 72L110 73L109 72z"/>
<path style="fill:#a6a6a6; stroke:none;" d="M108 73L109 74L108 73M45 74L46 75L45 74M107 74L108 75L107 74z"/>
<path style="fill:#505050; stroke:none;" d="M107 75L108 76L107 75M44 76L45 77L44 76z"/>
<path style="fill:#a6a6a6; stroke:none;" d="M106 76L107 77L106 76z"/>
<path style="fill:#505050; stroke:none;" d="M304 76L305 77L304 76z"/>
<path style="fill:#a6a6a6; stroke:none;" d="M305 76L305 77L313 77L305 76z"/>
<path style="fill:#6b6b6b; stroke:none;" d="M313 76L314 77L313 76z"/>
<path style="fill:#505050; stroke:none;" d="M314 76L315 77L314 76z"/>
<path style="fill:#a6a6a6; stroke:none;" d="M44 77L45 78L44 77z"/>
<path style="fill:#fdfdfd; stroke:none;" d="M162 77L144 128C155.001 127.961 150.718 121.225 157.419 115.603C160.457 113.055 166.301 113.858 169.999 114.019C180.784 114.489 176.741 127.957 189 128L171 77L162 77z"/>
<path style="fill:#505050; stroke:none;" d="M300 77L301 78L300 77z"/>
<path style="fill:#a6a6a6; stroke:none;" d="M301 77L302 78L301 77z"/>
<path style="fill:#fdfdfd; stroke:none;" d="M290 115C292.643 131.639 322.902 135.246 327.442 117.999C333.224 96.0362 303.668 105.335 299.662 91.9568C296.3 80.7284 316.628 81.3149 320 91L327 91C326.1 74.5637 298.1 70.9945 292.148 86.0039C284.382 105.59 311.189 101.649 318.551 111.108C324.748 119.069 311.264 124.476 305.001 122.106C298.878 119.788 297.142 115.085 290 115z"/>
<path style="fill:#a6a6a6; stroke:none;" d="M316 77L317 78L316 77z"/>
<path style="fill:#6b6b6b; stroke:none;" d="M317 77L318 78L317 77z"/>
<path style="fill:#a6a6a6; stroke:none;" d="M105 78L106 79L105 78z"/>
<path style="fill:#505050; stroke:none;" d="M161 78L162 79L161 78M171 78L172 79L171 78M298 78L299 79L298 78z"/>
<path style="fill:#a6a6a6; stroke:none;" d="M299 78L300 79L299 78M319 78L320 79L319 78z"/>
<path style="fill:#505050; stroke:none;" d="M105 79L106 80L105 79z"/>
<path style="fill:#a6a6a6; stroke:none;" d="M161 79L162 80L161 79M171 79L172 80L171 79M297 79L298 80L297 79z"/>
<path style="fill:#505050; stroke:none;" d="M321 79L322 80L321 79M43 80L44 81L43 80M295 80L296 81L295 80z"/>
<path style="fill:#a6a6a6; stroke:none;" d="M322 80L323 81L322 80z"/>
<path style="fill:#6b6b6b; stroke:none;" d="M43 81L44 82L43 81z"/>
<path style="fill:#a6a6a6; stroke:none;" d="M104 81L105 82L104 81z"/>
<path style="fill:#6b6b6b; stroke:none;" d="M160 81L161 82L160 81M172 81L173 82L172 81z"/>
<path style="fill:#505050; stroke:none;" d="M294 81L295 82L294 81z"/>
<path style="fill:#a6a6a6; stroke:none;" d="M323 81L324 82L323 81M43.3333 82.6667L43.6667 83.3333L43.3333 82.6667z"/>
<path style="fill:#6b6b6b; stroke:none;" d="M104 82L105 83L104 82z"/>
<path style="fill:#a6a6a6; stroke:none;" d="M160 82L161 83L160 82M172 82L173 83L172 82z"/>
<path style="fill:#505050; stroke:none;" d="M293 82L294 83L293 82z"/>
<path style="fill:#a6a6a6; stroke:none;" d="M324 82L325 83L324 82z"/>
<path style="fill:#6b6b6b; stroke:none;" d="M337 82L338 83L337 82z"/>
<path style="fill:#fdfdfd; stroke:none;" d="M338 82L338 91L332 91L332 97L338 97C338 111.612 333.201 127.998 352 128L352 123C341.422 120.84 345 105.353 345 97L352 97L352 91L345 91L345 82L338 82z"/>
<path style="fill:#505050; stroke:none;" d="M104 83L105 84L104 83z"/>
<path style="fill:#a6a6a6; stroke:none;" d="M304 83L305 84L304 83z"/>
<path style="fill:#6b6b6b; stroke:none;" d="M305 83L306 84L305 83z"/>
<path style="fill:#505050; stroke:none;" d="M306 83L307 84L306 83M312 83L313 84L312 83z"/>
<path style="fill:#6b6b6b; stroke:none;" d="M313 83L314 84L313 83z"/>
<path style="fill:#505050; stroke:none;" d="M325 83L326 84L325 83z"/>
<path style="fill:#a6a6a6; stroke:none;" d="M337 83L337 91L338 91L337 83z"/>
<path style="fill:#6b6b6b; stroke:none;" d="M159 84L160 85L159 84M173 84L174 85L173 84z"/>
<path style="fill:#a6a6a6; stroke:none;" d="M292 84L293 85L292 84M302 84L303 85L302 84z"/>
<path style="fill:#505050; stroke:none;" d="M315 84L316 85L315 84z"/>
<path style="fill:#a6a6a6; stroke:none;" d="M173 85L174 86L173 85z"/>
<path style="fill:#505050; stroke:none;" d="M301 85L302 86L301 85z"/>
<path style="fill:#a6a6a6; stroke:none;" d="M317 85L318 86L317 85z"/>
<path style="fill:#6b6b6b; stroke:none;" d="M326 85L327 86L326 85z"/>
<path style="fill:#505050; stroke:none;" d="M158 86L159 87L158 86M166 86L167 87L166 86z"/>
<path style="fill:#6b6b6b; stroke:none;" d="M291 86L292 87L291 86z"/>
<path style="fill:#505050; stroke:none;" d="M300 86L301 87L300 86z"/>
<path style="fill:#a6a6a6; stroke:none;" d="M318 86L319 87L318 86M158 87L159 88L158 87M165 87L166 88L165 87z"/>
<path style="fill:#010101; stroke:none;" d="M166 87L159 108L174 108L166 87z"/>
<path style="fill:#6b6b6b; stroke:none;" d="M174 87L175 88L174 87z"/>
<path style="fill:#a6a6a6; stroke:none;" d="M291 87L292 88L291 87M299 87L300 88L299 87z"/>
<path style="fill:#505050; stroke:none;" d="M327 87L328 88L327 87M165 88L166 89L165 88z"/>
<path style="fill:#6b6b6b; stroke:none;" d="M167 88L168 89L167 88z"/>
<path style="fill:#505050; stroke:none;" d="M299 88L300 89L299 88z"/>
<path style="fill:#a6a6a6; stroke:none;" d="M319 88L320 89L319 88z"/>
<path style="fill:#6b6b6b; stroke:none;" d="M327 88L328 89L327 88z"/>
<path style="fill:#505050; stroke:none;" d="M104 89L105 90L104 89M157 89L158 90L157 89M167 89L168 90L167 89M175 89L176 90L175 89M319 89L320 90L319 89z"/>
<path style="fill:#a6a6a6; stroke:none;" d="M327.333 89.6667L327.667 90.3333L327.333 89.6667M43.3333 90.6667L43.6667 91.3333L43.3333 90.6667z"/>
<path style="fill:#6b6b6b; stroke:none;" d="M104 90L105 91L104 90z"/>
<path style="fill:#a6a6a6; stroke:none;" d="M157 90L158 91L157 90M164 90L165 91L164 90M175 90L176 91L175 90z"/>
<path style="fill:#505050; stroke:none;" d="M211 90L212 91L211 90z"/>
<path style="fill:#6b6b6b; stroke:none;" d="M212.667 90.3333L213.333 90.6667L212.667 90.3333z"/>
<path style="fill:#505050; stroke:none;" d="M214.667 90.3333L215.333 90.6667L214.667 90.3333M252 90L253 91L252 90z"/>
<path style="fill:#6b6b6b; stroke:none;" d="M253.667 90.3333L254.333 90.6667L253.667 90.3333z"/>
<path style="fill:#505050; stroke:none;" d="M255.667 90.3333L256.333 90.6667L255.667 90.3333M290 90L290 93L291 93L290 90M370 90L370 91L373 91L370 90z"/>
<path style="fill:#6b6b6b; stroke:none;" d="M373.667 90.3333L374.333 90.6667L373.667 90.3333z"/>
<path style="fill:#505050; stroke:none;" d="M375 90L375 91L378 91L375 90M412.667 90.3333L413.333 90.6667L412.667 90.3333z"/>
<path style="fill:#6b6b6b; stroke:none;" d="M414 90L415 91L414 90z"/>
<path style="fill:#505050; stroke:none;" d="M415.667 90.3333L416.333 90.6667L415.667 90.3333M433.667 90.3333L434.333 90.6667L433.667 90.3333z"/>
<path style="fill:#6b6b6b; stroke:none;" d="M435.667 90.3333L436.333 90.6667L435.667 90.3333z"/>
<path style="fill:#505050; stroke:none;" d="M437.667 90.3333L438.333 90.6667L437.667 90.3333z"/>
<path style="fill:#a6a6a6; stroke:none;" d="M104 91L105 92L104 91z"/>
<path style="fill:#505050; stroke:none;" d="M164 91L165 92L164 91z"/>
<path style="fill:#6b6b6b; stroke:none;" d="M168 91L169 92L168 91z"/>
<path style="fill:#fdfdfd; stroke:none;" d="M194 91L194 141L201 141L201 122C203.434 124.302 205.801 126.639 209 127.848C233.918 137.266 236.133 83.2375 209 91.6528C205.805 92.6438 203.431 94.8194 201 97L201 91L194 91z"/>
<path style="fill:#6b6b6b; stroke:none;" d="M201 91L201 97L202 97L201 91M208 91L209 92L208 91z"/>
<path style="fill:#a6a6a6; stroke:none;" d="M217 91L218 92L217 91z"/>
<path style="fill:#6b6b6b; stroke:none;" d="M218 91L219 92L218 91z"/>
<path style="fill:#fdfdfd; stroke:none;" d="M235 91L235 141L242 141L242 122C244.434 124.302 246.801 126.639 250 127.848C275.072 137.324 277.138 83.2028 250 91.6528C246.805 92.6478 244.433 94.8178 242 97L242 91L235 91z"/>
<path style="fill:#6b6b6b; stroke:none;" d="M242 91L242 97L243 97L242 91M249 91L250 92L249 91M259 91L260 92L259 91z"/>
<path style="fill:#505050; stroke:none;" d="M321 91L321 92L327 92L321 91M352 91L352 97L353 97L352 91z"/>
<path style="fill:#6b6b6b; stroke:none;" d="M367 91L368 92L367 91z"/>
<path style="fill:#a6a6a6; stroke:none;" d="M368 91L369 92L368 91z"/>
<path style="fill:#fdfdfd; stroke:none;" d="M369 91.5332C347.572 96.7403 355.817 133.708 379 127.955C400.333 122.661 392.227 85.8889 369 91.5332z"/>
<path style="fill:#a6a6a6; stroke:none;" d="M379 91L380 92L379 91z"/>
<path style="fill:#505050; stroke:none;" d="M380 91L381 92L380 91z"/>
<path style="fill:#fdfdfd; stroke:none;" d="M398 91L398 128L405 128C405 118.251 401.213 95.6738 417 98L417 91C411.815 91.1253 408.388 92.1586 406 97L405 97L405 91L398 91z"/>
<path style="fill:#505050; stroke:none;" d="M405 91L405 96L406 96L405 91z"/>
<path style="fill:#a6a6a6; stroke:none;" d="M410 91L411 92L410 91z"/>
<path style="fill:#505050; stroke:none;" d="M429 91L430 92L429 91z"/>
<path style="fill:#a6a6a6; stroke:none;" d="M430 91L431 92L430 91z"/>
<path style="fill:#fdfdfd; stroke:none;" d="M452 118C441.61 118.123 427.888 129.314 426 111L452 111C451.996 104.947 451.734 98.8659 446.787 94.5579C436.353 85.4719 421.155 93.52 419.301 106C416.288 126.276 443.708 139.072 452 118z"/>
<path style="fill:#a6a6a6; stroke:none;" d="M441 91L442 92L441 91z"/>
<path style="fill:#505050; stroke:none;" d="M442 91L443 92L442 91z"/>
<path style="fill:#6b6b6b; stroke:none;" d="M43.3333 92.6667L43.6667 93.3333L43.3333 92.6667M156 92L157 93L156 92z"/>
<path style="fill:#505050; stroke:none;" d="M168 92L169 93L168 92M176 92L177 93L176 92z"/>
<path style="fill:#a6a6a6; stroke:none;" d="M206 92L207 93L206 92M220 92L221 93L220 92M247 92L248 93L247 92M261 92L262 93L261 92z"/>
<path style="fill:#6b6b6b; stroke:none;" d="M365 92L366 93L365 92M382 92L383 93L382 92M408 92L409 93L408 92z"/>
<path style="fill:#505050; stroke:none;" d="M427 92L428 93L427 92M444 92L445 93L444 92z"/>
<path style="fill:#6b6b6b; stroke:none;" d="M105 93L106 94L105 93z"/>
<path style="fill:#a6a6a6; stroke:none;" d="M156 93L157 94L156 93M163 93L164 94L163 93M176 93L177 94L176 93z"/>
<path style="fill:#505050; stroke:none;" d="M204 93L205 94L204 93M222 93L223 94L222 93M245 93L246 94L245 93z"/>
<path style="fill:#6b6b6b; stroke:none;" d="M263 93L264 94L263 93z"/>
<path style="fill:#a6a6a6; stroke:none;" d="M299 93L300 94L299 93z"/>
<path style="fill:#505050; stroke:none;" d="M363 93L364 94L363 93M384 93L385 94L384 93M407 93L408 94L407 93M425 93L426 94L425 93z"/>
<path style="fill:#a6a6a6; stroke:none;" d="M426 93L427 94L426 93M445 93L446 94L445 93z"/>
<path style="fill:#505050; stroke:none;" d="M43.3333 94.6667L43.6667 95.3333L43.3333 94.6667z"/>
<path style="fill:#a6a6a6; stroke:none;" d="M105 94L106 95L105 94z"/>
<path style="fill:#505050; stroke:none;" d="M163 94L164 95L163 94z"/>
<path style="fill:#6b6b6b; stroke:none;" d="M169 94L170 95L169 94z"/>
<path style="fill:#505050; stroke:none;" d="M203 94L204 95L203 94z"/>
<path style="fill:#6b6b6b; stroke:none;" d="M223 94L224 95L223 94z"/>
<path style="fill:#505050; stroke:none;" d="M244 94L245 95L244 94z"/>
<path style="fill:#6b6b6b; stroke:none;" d="M264 94L265 95L264 94M300 94L301 95L300 94M362 94L363 95L362 94M385 94L386 95L385 94z"/>
<path style="fill:#505050; stroke:none;" d="M424 94L425 95L424 94M447 94L448 95L447 94M106 95L107 96L106 95z"/>
<path style="fill:#6b6b6b; stroke:none;" d="M155 95L156 96L155 95M177 95L178 96L177 95z"/>
<path style="fill:#505050; stroke:none;" d="M202 95L203 96L202 95z"/>
<path style="fill:#6b6b6b; stroke:none;" d="M224 95L225 96L224 95z"/>
<path style="fill:#505050; stroke:none;" d="M243 95L244 96L243 95z"/>
<path style="fill:#6b6b6b; stroke:none;" d="M265 95L266 96L265 95z"/>
<path style="fill:#a6a6a6; stroke:none;" d="M291 95L292 96L291 95M301 95L302 96L301 95M361 95L362 96L361 95M386 95L387 96L386 95z"/>
<path style="fill:#505050; stroke:none;" d="M423 95L424 96L423 95M448 95L449 96L448 95z"/>
<path style="fill:#a6a6a6; stroke:none;" d="M155 96L156 97L155 96M162 96L163 97L162 96M170 96L171 97L170 96M177 96L178 97L177 96z"/>
<path style="fill:#505050; stroke:none;" d="M225 96L226 97L225 96M266 96L267 97L266 96M291 96L292 97L291 96z"/>
<path style="fill:#6b6b6b; stroke:none;" d="M303 96L304 97L303 96M360 96L361 97L360 96M387 96L388 97L387 96M405 96L406 97L405 96z"/>
<path style="fill:#a6a6a6; stroke:none;" d="M435.667 96.3333L436.333 96.6667L435.667 96.3333M44 97L45 98L44 97z"/>
<path style="fill:#6b6b6b; stroke:none;" d="M107 97L108 98L107 97z"/>
<path style="fill:#505050; stroke:none;" d="M162 97L163 98L162 97z"/>
<path style="fill:#6b6b6b; stroke:none;" d="M170 97L171 98L170 97z"/>
<path style="fill:#a6a6a6; stroke:none;" d="M208 97L209 98L208 97z"/>
<path style="fill:#6b6b6b; stroke:none;" d="M209 97L210 98L209 97z"/>
<path style="fill:#505050; stroke:none;" d="M210 97L210 98L213 98L210 97z"/>
<path style="fill:#6b6b6b; stroke:none;" d="M213 97L214 98L213 97z"/>
<path style="fill:#a6a6a6; stroke:none;" d="M214 97L215 98L214 97M249 97L250 98L249 97z"/>
<path style="fill:#6b6b6b; stroke:none;" d="M250 97L251 98L250 97z"/>
<path style="fill:#505050; stroke:none;" d="M251 97L251 98L254 98L251 97z"/>
<path style="fill:#6b6b6b; stroke:none;" d="M254 97L255 98L254 97z"/>
<path style="fill:#a6a6a6; stroke:none;" d="M255 97L256 98L255 97M292 97L293 98L292 97M305 97L306 98L305 97z"/>
<path style="fill:#6b6b6b; stroke:none;" d="M306 97L307 98L306 97z"/>
<path style="fill:#a6a6a6; stroke:none;" d="M337 97L337 119L338 119L337 97z"/>
<path style="fill:#505050; stroke:none;" d="M345 97L346 98L345 97M359 97L360 98L359 97z"/>
<path style="fill:#6b6b6b; stroke:none;" d="M370 97L371 98L370 97z"/>
<path style="fill:#505050; stroke:none;" d="M371 97L372 98L371 97z"/>
<path style="fill:#010101; stroke:none;" d="M372.004 97.6127C359.817 100.532 362.824 125.589 376.957 121.566C387.692 118.509 384.916 94.5197 372.004 97.6127z"/>
<path style="fill:#505050; stroke:none;" d="M376 97L377 98L376 97z"/>
<path style="fill:#a6a6a6; stroke:none;" d="M377 97L378 98L377 97z"/>
<path style="fill:#505050; stroke:none;" d="M388 97L389 98L388 97z"/>
<path style="fill:#a6a6a6; stroke:none;" d="M412 97L412 98L416 98L412 97M422 97L423 98L422 97z"/>
<path style="fill:#6b6b6b; stroke:none;" d="M432 97L433 98L432 97z"/>
<path style="fill:#010101; stroke:none;" d="M427 106L445 106C442.164 95.1668 429.341 94.4324 427 106z"/>
<path style="fill:#6b6b6b; stroke:none;" d="M439 97L440 98L439 97z"/>
<path style="fill:#a6a6a6; stroke:none;" d="M449 97L450 98L449 97z"/>
<path style="fill:#6b6b6b; stroke:none;" d="M44 98L45 99L44 98z"/>
<path style="fill:#505050; stroke:none;" d="M108 98L109 99L108 98z"/>
<path style="fill:#6b6b6b; stroke:none;" d="M154 98L155 99L154 98M178 98L179 99L178 98z"/>
<path style="fill:#a6a6a6; stroke:none;" d="M206 98L207 99L206 98z"/>
<path style="fill:#010101; stroke:none;" d="M207.105 99.0278C196.762 104.768 203.166 127.843 215.811 120.543C225.983 114.67 219.688 92.0446 207.105 99.0278z"/>
<path style="fill:#a6a6a6; stroke:none;" d="M216 98L217 99L216 98z"/>
<path style="fill:#6b6b6b; stroke:none;" d="M226 98L227 99L226 98z"/>
<path style="fill:#a6a6a6; stroke:none;" d="M247 98L248 99L247 98z"/>
<path style="fill:#010101; stroke:none;" d="M248.105 99.0278C237.73 104.785 244.359 128.036 256.812 120.682C267.002 114.664 260.709 92.0328 248.105 99.0278z"/>
<path style="fill:#a6a6a6; stroke:none;" d="M257 98L258 99L257 98M267 98L268 99L267 98M309 98L310 99L309 98z"/>
<path style="fill:#505050; stroke:none;" d="M310 98L311 99L310 98z"/>
<path style="fill:#a6a6a6; stroke:none;" d="M368 98L369 99L368 98M379 98L380 99L379 98M409 98L410 99L409 98z"/>
<path style="fill:#505050; stroke:none;" d="M410 98L411 99L410 98z"/>
<path style="fill:#6b6b6b; stroke:none;" d="M421 98L422 99L421 98M430 98L431 99L430 98z"/>
<path style="fill:#a6a6a6; stroke:none;" d="M441 98L442 99L441 98z"/>
<path style="fill:#505050; stroke:none;" d="M450 98L451 99L450 98M44 99L45 100L44 99z"/>
<path style="fill:#a6a6a6; stroke:none;" d="M161 99L162 100L161 99M171 99L172 100L171 99M178 99L179 100L178 99z"/>
<path style="fill:#6b6b6b; stroke:none;" d="M205 99L206 100L205 99z"/>
<path style="fill:#a6a6a6; stroke:none;" d="M217 99L218 100L217 99z"/>
<path style="fill:#6b6b6b; stroke:none;" d="M246 99L247 100L246 99z"/>
<path style="fill:#a6a6a6; stroke:none;" d="M258 99L259 100L258 99z"/>
<path style="fill:#505050; stroke:none;" d="M293 99L294 100L293 99z"/>
<path style="fill:#a6a6a6; stroke:none;" d="M313 99L314 100L313 99z"/>
<path style="fill:#505050; stroke:none;" d="M314 99L315 100L314 99z"/>
<path style="fill:#6b6b6b; stroke:none;" d="M358 99L359 100L358 99M367 99L368 100L367 99M380 99L381 100L380 99M389 99L390 100L389 99z"/>
<path style="fill:#505050; stroke:none;" d="M408 99L409 100L408 99M429 99L430 100L429 99z"/>
<path style="fill:#6b6b6b; stroke:none;" d="M442 99L443 100L442 99z"/>
<path style="fill:#a6a6a6; stroke:none;" d="M450 99L451 100L450 99z"/>
<path style="fill:#505050; stroke:none;" d="M153 100L154 101L153 100M161 100L162 101L161 100z"/>
<path style="fill:#6b6b6b; stroke:none;" d="M171 100L172 101L171 100z"/>
<path style="fill:#505050; stroke:none;" d="M179 100L180 101L179 100z"/>
<path style="fill:#6b6b6b; stroke:none;" d="M204 100L205 101L204 100z"/>
<path style="fill:#a6a6a6; stroke:none;" d="M218 100L219 101L218 100z"/>
<path style="fill:#6b6b6b; stroke:none;" d="M227 100L228 101L227 100M245 100L246 101L245 100z"/>
<path style="fill:#a6a6a6; stroke:none;" d="M259 100L260 101L259 100z"/>
<path style="fill:#6b6b6b; stroke:none;" d="M268 100L269 101L268 100z"/>
<path style="fill:#505050; stroke:none;" d="M294 100L295 101L294 100z"/>
<path style="fill:#a6a6a6; stroke:none;" d="M316 100L317 101L316 100z"/>
<path style="fill:#6b6b6b; stroke:none;" d="M317 100L318 101L317 100z"/>
<path style="fill:#a6a6a6; stroke:none;" d="M366 100L367 101L366 100M381 100L382 101L381 100z"/>
<path style="fill:#505050; stroke:none;" d="M407 100L408 101L407 100z"/>
<path style="fill:#6b6b6b; stroke:none;" d="M420 100L421 101L420 100M428 100L429 101L428 100z"/>
<path style="fill:#a6a6a6; stroke:none;" d="M443 100L444 101L443 100z"/>
<path style="fill:#505050; stroke:none;" d="M451 100L452 101L451 100z"/>
<path style="fill:#a6a6a6; stroke:none;" d="M45 101L46 102L45 101z"/>
<path style="fill:#505050; stroke:none;" d="M111 101L112 102L111 101z"/>
<path style="fill:#a6a6a6; stroke:none;" d="M153 101L154 102L153 101z"/>
<path style="fill:#6b6b6b; stroke:none;" d="M179 101L180 102L179 101z"/>
<path style="fill:#a6a6a6; stroke:none;" d="M203 101L204 102L203 101M227 101L228 102L227 101M244 101L245 102L244 101M268 101L269 102L268 101z"/>
<path style="fill:#505050; stroke:none;" d="M295 101L296 102L295 101z"/>
<path style="fill:#a6a6a6; stroke:none;" d="M319 101L320 102L319 101z"/>
<path style="fill:#505050; stroke:none;" d="M320 101L321 102L320 101M357 101L358 102L357 101M390 101L391 102L390 101z"/>
<path style="fill:#a6a6a6; stroke:none;" d="M406 101L407 102L406 101M427 101L428 102L427 101M451 101L452 102L451 101z"/>
<path style="fill:#6b6b6b; stroke:none;" d="M45 102L46 103L45 102M112 102L113 103L112 102z"/>
<path style="fill:#a6a6a6; stroke:none;" d="M160 102L161 103L160 102M172 102L173 103L172 102z"/>
<path style="fill:#505050; stroke:none;" d="M203 102L204 103L203 102M219 102L220 103L219 102M244 102L245 103L244 102M260 102L261 103L260 102z"/>
<path style="fill:#6b6b6b; stroke:none;" d="M297 102L298 103L297 102z"/>
<path style="fill:#a6a6a6; stroke:none;" d="M321 102L322 103L321 102z"/>
<path style="fill:#505050; stroke:none;" d="M322 102L323 103L322 102z"/>
<path style="fill:#a6a6a6; stroke:none;" d="M357 102L358 103L357 102z"/>
<path style="fill:#6b6b6b; stroke:none;" d="M365 102L366 103L365 102M382 102L383 103L382 102z"/>
<path style="fill:#a6a6a6; stroke:none;" d="M390 102L391 103L390 102z"/>
<path style="fill:#505050; stroke:none;" d="M406 102L407 103L406 102M419 102L420 103L419 102M427 102L428 103L427 102z"/>
<path style="fill:#a6a6a6; stroke:none;" d="M444 102L445 103L444 102M113 103L114 104L113 103z"/>
<path style="fill:#505050; stroke:none;" d="M114 103L115 104L114 103M152 103L153 104L152 103M160 103L161 104L160 103z"/>
<path style="fill:#6b6b6b; stroke:none;" d="M172 103L173 104L172 103z"/>
<path style="fill:#505050; stroke:none;" d="M180 103L181 104L180 103z"/>
<path style="fill:#a6a6a6; stroke:none;" d="M202 103L203 104L202 103z"/>
<path style="fill:#505050; stroke:none;" d="M228 103L229 104L228 103z"/>
<path style="fill:#a6a6a6; stroke:none;" d="M243 103L244 104L243 103z"/>
<path style="fill:#505050; stroke:none;" d="M269 103L270 104L269 103z"/>
<path style="fill:#6b6b6b; stroke:none;" d="M299 103L300 104L299 103z"/>
<path style="fill:#a6a6a6; stroke:none;" d="M300 103L301 104L300 103M323 103L324 104L323 103z"/>
<path style="fill:#6b6b6b; stroke:none;" d="M419 103L420 104L419 103z"/>
<path style="fill:#505050; stroke:none;" d="M444 103L445 104L444 103z"/>
<path style="fill:#a6a6a6; stroke:none;" d="M46 104L47 105L46 104M115.333 104.667L115.667 105.333L115.333 104.667M152 104L153 105L152 104M180 104L181 105L180 104z"/>
<path style="fill:#505050; stroke:none;" d="M202 104L203 105L202 104z"/>
<path style="fill:#a6a6a6; stroke:none;" d="M220 104L221 105L220 104M228.333 104.667L228.667 105.333L228.333 104.667z"/>
<path style="fill:#6b6b6b; stroke:none;" d="M243 104L244 105L243 104M261 104L262 105L261 104z"/>
<path style="fill:#a6a6a6; stroke:none;" d="M269.333 104.667L269.667 105.333L269.333 104.667z"/>
<path style="fill:#505050; stroke:none;" d="M301 104L302 105L301 104z"/>
<path style="fill:#6b6b6b; stroke:none;" d="M302 104L303 105L302 104z"/>
<path style="fill:#a6a6a6; stroke:none;" d="M303 104L304 105L303 104M324 104L325 105L324 104M364.333 104.667L364.667 105.333L364.333 104.667M383.333 104.667L383.667 105.333L383.333 104.667M405 104L405 128L398 128L398 129C408.706 128.873 408.421 112.152 405 104M419 104L420 105L419 104M426 104L427 105L426 104z"/>
<path style="fill:#505050; stroke:none;" d="M452 104L453 105L452 104z"/>
<path style="fill:#6b6b6b; stroke:none;" d="M46 105L47 106L46 105z"/>
<path style="fill:#a6a6a6; stroke:none;" d="M159 105L160 106L159 105M173 105L174 106L173 105z"/>
<path style="fill:#505050; stroke:none;" d="M220 105L221 106L220 105M261 105L262 106L261 105M305 105L306 106L305 105z"/>
<path style="fill:#a6a6a6; stroke:none;" d="M306.667 105.333L307.333 105.667L306.667 105.333M325 105L326 106L325 105z"/>
<path style="fill:#505050; stroke:none;" d="M356 105L357 106L356 105M391 105L392 106L391 105z"/>
<path style="fill:#6b6b6b; stroke:none;" d="M426 105L427 106L426 105M452 105L453 106L452 105z"/>
<path style="fill:#505050; stroke:none;" d="M115 106L116 107L115 106z"/>
<path style="fill:#6b6b6b; stroke:none;" d="M151 106L152 107L151 106z"/>
<path style="fill:#505050; stroke:none;" d="M159 106L160 107L159 106z"/>
<path style="fill:#6b6b6b; stroke:none;" d="M173 106L174 107L173 106z"/>
<path style="fill:#505050; stroke:none;" d="M181 106L182 107L181 106M309 106L310 107L309 106z"/>
<path style="fill:#6b6b6b; stroke:none;" d="M310 106L311 107L310 106z"/>
<path style="fill:#a6a6a6; stroke:none;" d="M311 106L312 107L311 106M326 106L327 107L326 106z"/>
<path style="fill:#6b6b6b; stroke:none;" d="M356.333 106.667L356.667 107.333L356.333 106.667z"/>
<path style="fill:#505050; stroke:none;" d="M364 106L364 109L365 109L364 106z"/>
<path style="fill:#6b6b6b; stroke:none;" d="M383 106L384 107L383 106M391.333 106.667L391.667 107.333L391.333 106.667z"/>
<path style="fill:#a6a6a6; stroke:none;" d="M427 106L427 107L445 107L427 106M452 106L452 111L426 111L426 112C431.438 112 455.515 115.251 452 106M47 107L48 108L47 107M151 107L152 108L151 107M181 107L182 108L181 107M201 107L201 113L202 113L201 107M242 107L242 113L243 113L242 107z"/>
<path style="fill:#505050; stroke:none;" d="M313 107L314 108L313 107z"/>
<path style="fill:#a6a6a6; stroke:none;" d="M314 107L315 108L314 107z"/>
<path style="fill:#505050; stroke:none;" d="M383.333 107.667L383.667 108.333L383.333 107.667M47 108L48 109L47 108z"/>
<path style="fill:#6b6b6b; stroke:none;" d="M114 108L115 109L114 108z"/>
<path style="fill:#a6a6a6; stroke:none;" d="M159 108L159 109L174 109L159 108M316 108L317 109L316 108M327 108L328 109L327 108M356 108L356 112L357 112L356 108M391 108L391 111L392 111L391 108z"/>
<path style="fill:#505050; stroke:none;" d="M418 108L418 112L419 112L418 108z"/>
<path style="fill:#a6a6a6; stroke:none;" d="M48 109L49 110L48 109z"/>
<path style="fill:#6b6b6b; stroke:none;" d="M150 109L151 110L150 109M182 109L183 110L182 109z"/>
<path style="fill:#a6a6a6; stroke:none;" d="M221 109L222 110L221 109M262.333 109.667L262.667 110.333L262.333 109.667z"/>
<path style="fill:#505050; stroke:none;" d="M317 109L318 110L317 109M48 110L49 111L48 110z"/>
<path style="fill:#a6a6a6; stroke:none;" d="M113 110L114 111L113 110M150 110L151 111L150 110M182 110L183 111L182 110z"/>
<path style="fill:#505050; stroke:none;" d="M328 110L329 111L328 110M383 110L383 113L384 113L383 110z"/>
<path style="fill:#a6a6a6; stroke:none;" d="M49 111L50 112L49 111z"/>
<path style="fill:#505050; stroke:none;" d="M113 111L114 112L113 111M149 111L150 112L149 111M319 111L320 112L319 111z"/>
<path style="fill:#6b6b6b; stroke:none;" d="M328.333 111.667L328.667 112.333L328.333 111.667z"/>
<path style="fill:#505050; stroke:none;" d="M364.333 111.667L364.667 112.333L364.333 111.667z"/>
<path style="fill:#6b6b6b; stroke:none;" d="M391 111L391 114L392 114L391 111M452 111L453 112L452 111z"/>
<path style="fill:#505050; stroke:none;" d="M49 112L50 113L49 112z"/>
<path style="fill:#a6a6a6; stroke:none;" d="M112 112L113 113L112 112z"/>
<path style="fill:#6b6b6b; stroke:none;" d="M149 112L150 113L149 112M183 112L184 113L183 112M356.333 112.667L356.667 113.333L356.333 112.667M426 112L426 115L427 115L426 112z"/>
<path style="fill:#a6a6a6; stroke:none;" d="M50 113L51 114L50 113M183 113L184 114L183 113z"/>
<path style="fill:#505050; stroke:none;" d="M220 113L221 114L220 113z"/>
<path style="fill:#a6a6a6; stroke:none;" d="M228.333 113.667L228.667 114.333L228.333 113.667M320 113L321 114L320 113M328 113L329 114L328 113z"/>
<path style="fill:#6b6b6b; stroke:none;" d="M364 113L365 114L364 113M383 113L384 114L383 113z"/>
<path style="fill:#a6a6a6; stroke:none;" d="M111 114L112 115L111 114z"/>
<path style="fill:#505050; stroke:none;" d="M148 114L149 115L148 114z"/>
<path style="fill:#a6a6a6; stroke:none;" d="M157 114L157 115L176 115L157 114z"/>
<path style="fill:#505050; stroke:none;" d="M184 114L185 115L184 114M202 114L203 115L202 114z"/>
<path style="fill:#6b6b6b; stroke:none;" d="M220 114L221 115L220 114z"/>
<path style="fill:#505050; stroke:none;" d="M243 114L244 115L243 114M261 114L262 115L261 114z"/>
<path style="fill:#a6a6a6; stroke:none;" d="M269 114L270 115L269 114z"/>
<path style="fill:#6b6b6b; stroke:none;" d="M289.333 114.667L289.667 115.333L289.333 114.667z"/>
<path style="fill:#a6a6a6; stroke:none;" d="M290 114L290 115L297 115L290 114z"/>
<path style="fill:#505050; stroke:none;" d="M297 114L298 115L297 114z"/>
<path style="fill:#6b6b6b; stroke:none;" d="M320 114L321 115L320 114M328.333 114.667L328.667 115.333L328.333 114.667z"/>
<path style="fill:#505050; stroke:none;" d="M356 114L357 115L356 114z"/>
<path style="fill:#a6a6a6; stroke:none;" d="M364 114L365 115L364 114M383 114L384 115L383 114z"/>
<path style="fill:#505050; stroke:none;" d="M391 114L392 115L391 114z"/>
<path style="fill:#a6a6a6; stroke:none;" d="M51 115L52 116L51 115M148 115L149 116L148 115z"/>
<path style="fill:#505050; stroke:none;" d="M156 115L157 116L156 115z"/>
<path style="fill:#a6a6a6; stroke:none;" d="M176 115L177 116L176 115M184 115L185 116L184 115z"/>
<path style="fill:#6b6b6b; stroke:none;" d="M202 115L203 116L202 115z"/>
<path style="fill:#a6a6a6; stroke:none;" d="M220 115L221 116L220 115z"/>
<path style="fill:#6b6b6b; stroke:none;" d="M228 115L229 116L228 115M243 115L244 116L243 115z"/>
<path style="fill:#a6a6a6; stroke:none;" d="M261 115L262 116L261 115z"/>
<path style="fill:#6b6b6b; stroke:none;" d="M269 115L270 116L269 115M297 115L298 116L297 115z"/>
<path style="fill:#a6a6a6; stroke:none;" d="M320.333 115.667L320.667 116.333L320.333 115.667M419 115L420 116L419 115M426 115L427 116L426 115z"/>
<path style="fill:#505050; stroke:none;" d="M110 116L111 117L110 116M176 116L177 117L176 116M228 116L229 117L228 116M269 116L270 117L269 116M289 116L290 117L289 116M328 116L329 117L328 116z"/>
<path style="fill:#a6a6a6; stroke:none;" d="M357 116L358 117L357 116z"/>
<path style="fill:#505050; stroke:none;" d="M365 116L366 117L365 116M382 116L383 117L382 116z"/>
<path style="fill:#a6a6a6; stroke:none;" d="M390 116L391 117L390 116z"/>
<path style="fill:#6b6b6b; stroke:none;" d="M419 116L420 117L419 116z"/>
<path style="fill:#505050; stroke:none;" d="M52 117L53 118L52 117z"/>
<path style="fill:#a6a6a6; stroke:none;" d="M109 117L110 118L109 117z"/>
<path style="fill:#505050; stroke:none;" d="M147 117L148 118L147 117z"/>
<path style="fill:#a6a6a6; stroke:none;" d="M155 117L156 118L155 117z"/>
<path style="fill:#505050; stroke:none;" d="M185 117L186 118L185 117z"/>
<path style="fill:#6b6b6b; stroke:none;" d="M203 117L204 118L203 117z"/>
<path style="fill:#a6a6a6; stroke:none;" d="M219 117L220 118L219 117z"/>
<path style="fill:#6b6b6b; stroke:none;" d="M244 117L245 118L244 117z"/>
<path style="fill:#a6a6a6; stroke:none;" d="M260 117L261 118L260 117z"/>
<path style="fill:#505050; stroke:none;" d="M298 117L299 118L298 117z"/>
<path style="fill:#6b6b6b; stroke:none;" d="M357 117L358 118L357 117z"/>
<path style="fill:#a6a6a6; stroke:none;" d="M365 117L366 118L365 117M382 117L383 118L382 117z"/>
<path style="fill:#6b6b6b; stroke:none;" d="M390 117L391 118L390 117z"/>
<path style="fill:#505050; stroke:none;" d="M419 117L420 118L419 117z"/>
<path style="fill:#6b6b6b; stroke:none;" d="M427 117L428 118L427 117M445 117L445 118L452 118L445 117z"/>
<path style="fill:#a6a6a6; stroke:none;" d="M53 118L54 119L53 118M147 118L148 119L147 118z"/>
<path style="fill:#505050; stroke:none;" d="M155 118L156 119L155 118z"/>
<path style="fill:#a6a6a6; stroke:none;" d="M177 118L178 119L177 118M185 118L186 119L185 118z"/>
<path style="fill:#505050; stroke:none;" d="M218 118L219 119L218 118z"/>
<path style="fill:#a6a6a6; stroke:none;" d="M227 118L228 119L227 118z"/>
<path style="fill:#505050; stroke:none;" d="M259 118L260 119L259 118z"/>
<path style="fill:#a6a6a6; stroke:none;" d="M268 118L269 119L268 118M290 118L291 119L290 118M319 118L320 119L319 118M327 118L328 119L327 118z"/>
<path style="fill:#505050; stroke:none;" d="M345.333 118.667L345.667 119.333L345.333 118.667M366 118L367 119L366 118M381 118L382 119L381 118z"/>
<path style="fill:#a6a6a6; stroke:none;" d="M420 118L421 119L420 118M444 118L445 119L444 118M54 119L55 120L54 119z"/>
<path style="fill:#505050; stroke:none;" d="M108 119L109 120L108 119M177 119L178 120L177 119z"/>
<path style="fill:#a6a6a6; stroke:none;" d="M204 119L205 120L204 119z"/>
<path style="fill:#505050; stroke:none;" d="M227 119L228 120L227 119z"/>
<path style="fill:#a6a6a6; stroke:none;" d="M245 119L246 120L245 119z"/>
<path style="fill:#505050; stroke:none;" d="M268 119L269 120L268 119M290 119L291 120L290 119z"/>
<path style="fill:#a6a6a6; stroke:none;" d="M318 119L319 120L318 119z"/>
<path style="fill:#6b6b6b; stroke:none;" d="M327 119L328 120L327 119M337.333 119.667L337.667 120.333L337.333 119.667z"/>
<path style="fill:#a6a6a6; stroke:none;" d="M358 119L359 120L358 119M389 119L390 120L389 119z"/>
<path style="fill:#6b6b6b; stroke:none;" d="M420 119L421 120L420 119z"/>
<path style="fill:#a6a6a6; stroke:none;" d="M428 119L429 120L428 119z"/>
<path style="fill:#505050; stroke:none;" d="M443 119L444 120L443 119z"/>
<path style="fill:#a6a6a6; stroke:none;" d="M451 119L452 120L451 119z"/>
<path style="fill:#505050; stroke:none;" d="M54 120L55 121L54 120z"/>
<path style="fill:#6b6b6b; stroke:none;" d="M107 120L108 121L107 120M146 120L147 121L146 120z"/>
<path style="fill:#a6a6a6; stroke:none;" d="M154 120L155 121L154 120z"/>
<path style="fill:#505050; stroke:none;" d="M186 120L187 121L186 120z"/>
<path style="fill:#a6a6a6; stroke:none;" d="M205 120L206 121L205 120z"/>
<path style="fill:#505050; stroke:none;" d="M216 120L217 121L216 120z"/>
<path style="fill:#a6a6a6; stroke:none;" d="M226 120L227 121L226 120M246 120L247 121L246 120z"/>
<path style="fill:#505050; stroke:none;" d="M257 120L258 121L257 120z"/>
<path style="fill:#6b6b6b; stroke:none;" d="M301 120L302 121L301 120z"/>
<path style="fill:#a6a6a6; stroke:none;" d="M317 120L318 121L317 120M345 120L346 121L345 120z"/>
<path style="fill:#505050; stroke:none;" d="M358 120L359 121L358 120z"/>
<path style="fill:#a6a6a6; stroke:none;" d="M367 120L368 121L367 120z"/>
<path style="fill:#505050; stroke:none;" d="M389 120L390 121L389 120z"/>
<path style="fill:#a6a6a6; stroke:none;" d="M429 120L430 121L429 120z"/>
<path style="fill:#505050; stroke:none;" d="M442 120L443 121L442 120z"/>
<path style="fill:#6b6b6b; stroke:none;" d="M451 120L452 121L451 120M55 121L56 122L55 121z"/>
<path style="fill:#a6a6a6; stroke:none;" d="M106 121L107 122L106 121M146 121L147 122L146 121z"/>
<path style="fill:#505050; stroke:none;" d="M154 121L155 122L154 121z"/>
<path style="fill:#a6a6a6; stroke:none;" d="M178 121L179 122L178 121M186 121L187 122L186 121z"/>
<path style="fill:#6b6b6b; stroke:none;" d="M207 121L208 122L207 121z"/>
<path style="fill:#505050; stroke:none;" d="M214 121L215 122L214 121z"/>
<path style="fill:#a6a6a6; stroke:none;" d="M215 121L216 122L215 121z"/>
<path style="fill:#505050; stroke:none;" d="M226 121L227 122L226 121z"/>
<path style="fill:#6b6b6b; stroke:none;" d="M248 121L249 122L248 121z"/>
<path style="fill:#a6a6a6; stroke:none;" d="M256 121L257 122L256 121z"/>
<path style="fill:#505050; stroke:none;" d="M267 121L268 122L267 121M291 121L292 122L291 121z"/>
<path style="fill:#a6a6a6; stroke:none;" d="M302 121L303 122L302 121z"/>
<path style="fill:#6b6b6b; stroke:none;" d="M303 121L304 122L303 121z"/>
<path style="fill:#505050; stroke:none;" d="M314 121L315 122L314 121z"/>
<path style="fill:#a6a6a6; stroke:none;" d="M315 121L316 122L315 121z"/>
<path style="fill:#6b6b6b; stroke:none;" d="M326 121L327 122L326 121z"/>
<path style="fill:#505050; stroke:none;" d="M337.333 121.667L337.667 122.333L337.333 121.667z"/>
<path style="fill:#6b6b6b; stroke:none;" d="M346 121L347 122L346 121z"/>
<path style="fill:#a6a6a6; stroke:none;" d="M359 121L360 122L359 121z"/>
<path style="fill:#6b6b6b; stroke:none;" d="M369 121L370 122L369 121M378 121L379 122L378 121z"/>
<path style="fill:#a6a6a6; stroke:none;" d="M388 121L389 122L388 121z"/>
<path style="fill:#505050; stroke:none;" d="M421 121L422 122L421 121z"/>
<path style="fill:#6b6b6b; stroke:none;" d="M431 121L432 122L431 121M441 121L442 122L441 121z"/>
<path style="fill:#a6a6a6; stroke:none;" d="M56 122L57 123L56 122z"/>
<path style="fill:#505050; stroke:none;" d="M178 122L179 123L178 122z"/>
<path style="fill:#a6a6a6; stroke:none;" d="M201 122L201 141L202 141L201 122M209 122L209 123L213 123L209 122M225 122L226 123L225 122M242 122L242 141L243 141L242 122M250 122L250 123L254 123L250 122M266 122L267 123L266 122M292 122L293 123L292 122M305.667 122.333L306.333 122.667L305.667 122.333z"/>
<path style="fill:#6b6b6b; stroke:none;" d="M307.667 122.333L308.333 122.667L307.667 122.333z"/>
<path style="fill:#505050; stroke:none;" d="M309 122L310 123L309 122z"/>
<path style="fill:#6b6b6b; stroke:none;" d="M310.667 122.333L311.333 122.667L310.667 122.333z"/>
<path style="fill:#a6a6a6; stroke:none;" d="M312 122L313 123L312 122M325 122L326 123L325 122M348 122L349 123L348 122z"/>
<path style="fill:#6b6b6b; stroke:none;" d="M349 122L350 123L349 122z"/>
<path style="fill:#a6a6a6; stroke:none;" d="M350.667 122.333L351.333 122.667L350.667 122.333M371 122L372 123L371 122z"/>
<path style="fill:#6b6b6b; stroke:none;" d="M372 122L372 123L376 123L372 122z"/>
<path style="fill:#a6a6a6; stroke:none;" d="M376 122L377 123L376 122M422 122L423 123L422 122M433 122L434 123L433 122z"/>
<path style="fill:#505050; stroke:none;" d="M434 122L434 123L439 123L434 122z"/>
<path style="fill:#6b6b6b; stroke:none;" d="M439 122L440 123L439 122z"/>
<path style="fill:#505050; stroke:none;" d="M450 122L451 123L450 122z"/>
<path style="fill:#a6a6a6; stroke:none;" d="M57 123L58 124L57 123z"/>
<path style="fill:#505050; stroke:none;" d="M105 123L106 124L105 123z"/>
<path style="fill:#6b6b6b; stroke:none;" d="M145 123L146 124L145 123z"/>
<path style="fill:#a6a6a6; stroke:none;" d="M153 123L154 124L153 123z"/>
<path style="fill:#6b6b6b; stroke:none;" d="M187 123L188 124L187 123M202 123L203 124L202 123z"/>
<path style="fill:#505050; stroke:none;" d="M243 123L244 124L243 123z"/>
<path style="fill:#a6a6a6; stroke:none;" d="M293 123L294 124L293 123z"/>
<path style="fill:#505050; stroke:none;" d="M360 123L361 124L360 123M387 123L388 124L387 123z"/>
<path style="fill:#6b6b6b; stroke:none;" d="M449 123L450 124L449 123z"/>
<path style="fill:#a6a6a6; stroke:none;" d="M58 124L59 125L58 124z"/>
<path style="fill:#505050; stroke:none;" d="M104 124L105 125L104 124z"/>
<path style="fill:#a6a6a6; stroke:none;" d="M145 124L146 125L145 124z"/>
<path style="fill:#505050; stroke:none;" d="M153 124L154 125L153 124z"/>
<path style="fill:#a6a6a6; stroke:none;" d="M179 124L180 125L179 124M187 124L188 125L187 124M203 124L204 125L203 124M244 124L245 125L244 124M294 124L295 125L294 124z"/>
<path style="fill:#6b6b6b; stroke:none;" d="M338 124L339 125L338 124z"/>
<path style="fill:#505050; stroke:none;" d="M361 124L362 125L361 124M386 124L387 125L386 124z"/>
<path style="fill:#a6a6a6; stroke:none;" d="M424 124L425 125L424 124M448 124L449 125L448 124M59 125L60 126L59 125M76 125L77 126L76 125z"/>
<path style="fill:#505050; stroke:none;" d="M77 125L78 126L77 125M84 125L85 126L84 125z"/>
<path style="fill:#6b6b6b; stroke:none;" d="M85 125L86 126L85 125z"/>
<path style="fill:#a6a6a6; stroke:none;" d="M86 125L87 126L86 125z"/>
<path style="fill:#505050; stroke:none;" d="M103 125L104 126L103 125M144 125L145 126L144 125M179 125L180 126L179 125z"/>
<path style="fill:#a6a6a6; stroke:none;" d="M204 125L205 126L204 125M245 125L246 126L245 125M295 125L296 126L295 125M322 125L323 126L322 125M425 125L426 126L425 125z"/>
<path style="fill:#6b6b6b; stroke:none;" d="M447 125L448 126L447 125M60 126L61 127L60 126z"/>
<path style="fill:#a6a6a6; stroke:none;" d="M73 126L74 127L73 126z"/>
<path style="fill:#505050; stroke:none;" d="M74 126L75 127L74 126z"/>
<path style="fill:#6b6b6b; stroke:none;" d="M88 126L89 127L88 126z"/>
<path style="fill:#a6a6a6; stroke:none;" d="M101 126L102 127L101 126M144 126L145 127L144 126M152 126L153 127L152 126z"/>
<path style="fill:#6b6b6b; stroke:none;" d="M188 126L189 127L188 126M205 126L206 127L205 126z"/>
<path style="fill:#a6a6a6; stroke:none;" d="M221 126L222 127L221 126z"/>
<path style="fill:#6b6b6b; stroke:none;" d="M246 126L247 127L246 126z"/>
<path style="fill:#a6a6a6; stroke:none;" d="M262 126L263 127L262 126z"/>
<path style="fill:#505050; stroke:none;" d="M296 126L297 127L296 126z"/>
<path style="fill:#a6a6a6; stroke:none;" d="M297 126L298 127L297 126z"/>
<path style="fill:#505050; stroke:none;" d="M321 126L322 127L321 126z"/>
<path style="fill:#6b6b6b; stroke:none;" d="M364 126L365 127L364 126M383 126L384 127L383 126M426 126L427 127L426 126z"/>
<path style="fill:#a6a6a6; stroke:none;" d="M445 126L446 127L445 126z"/>
<path style="fill:#505050; stroke:none;" d="M446 126L447 127L446 126z"/>
<path style="fill:#a6a6a6; stroke:none;" d="M62 127L63 128L62 127M70 127L71 128L70 127z"/>
<path style="fill:#6b6b6b; stroke:none;" d="M71 127L72 128L71 127z"/>
<path style="fill:#505050; stroke:none;" d="M90 127L91 128L90 127z"/>
<path style="fill:#a6a6a6; stroke:none;" d="M91 127L92 128L91 127M99 127L100 128L99 127z"/>
<path style="fill:#505050; stroke:none;" d="M100 127L101 128L100 127M152 127L153 128L152 127z"/>
<path style="fill:#a6a6a6; stroke:none;" d="M180 127L181 128L180 127z"/>
<path style="fill:#505050; stroke:none;" d="M206 127L207 128L206 127z"/>
<path style="fill:#a6a6a6; stroke:none;" d="M207 127L208 128L207 127M219 127L220 128L219 127z"/>
<path style="fill:#505050; stroke:none;" d="M220 127L221 128L220 127M247 127L248 128L247 127z"/>
<path style="fill:#a6a6a6; stroke:none;" d="M248 127L249 128L248 127M260 127L261 128L260 127z"/>
<path style="fill:#505050; stroke:none;" d="M261 127L262 128L261 127M298 127L299 128L298 127z"/>
<path style="fill:#a6a6a6; stroke:none;" d="M299 127L300 128L299 127M318 127L319 128L318 127z"/>
<path style="fill:#505050; stroke:none;" d="M319 127L320 128L319 127z"/>
<path style="fill:#a6a6a6; stroke:none;" d="M341 127L342 128L341 127M366 127L367 128L366 127M381 127L382 128L381 127z"/>
<path style="fill:#6b6b6b; stroke:none;" d="M428 127L429 128L428 127z"/>
<path style="fill:#a6a6a6; stroke:none;" d="M443 127L444 128L443 127z"/>
<path style="fill:#505050; stroke:none;" d="M444 127L445 128L444 127M64 128L65 129L64 128z"/>
<path style="fill:#6b6b6b; stroke:none;" d="M65 128L65 129L68 129L65 128z"/>
<path style="fill:#505050; stroke:none;" d="M68 128L69 129L68 128M93.6667 128.333L94.3333 128.667L93.6667 128.333z"/>
<path style="fill:#6b6b6b; stroke:none;" d="M95 128L96 129L95 128z"/>
<path style="fill:#505050; stroke:none;" d="M96.6667 128.333L97.3333 128.667L96.6667 128.333z"/>
<path style="fill:#a6a6a6; stroke:none;" d="M144 128L144 129L152 129L144 128M181 128L181 129L189 129L181 128z"/>
<path style="fill:#6b6b6b; stroke:none;" d="M209 128L210 129L209 128z"/>
<path style="fill:#a6a6a6; stroke:none;" d="M210 128L211 129L210 128M215.667 128.333L216.333 128.667L215.667 128.333z"/>
<path style="fill:#6b6b6b; stroke:none;" d="M217 128L218 129L217 128M250 128L251 129L250 128z"/>
<path style="fill:#a6a6a6; stroke:none;" d="M251 128L252 129L251 128M256.667 128.333L257.333 128.667L256.667 128.333z"/>
<path style="fill:#6b6b6b; stroke:none;" d="M258 128L259 129L258 128M301 128L302 129L301 128z"/>
<path style="fill:#a6a6a6; stroke:none;" d="M302 128L303 129L302 128M315 128L316 129L315 128z"/>
<path style="fill:#6b6b6b; stroke:none;" d="M316 128L317 129L316 128z"/>
<path style="fill:#505050; stroke:none;" d="M343 128L344 129L343 128z"/>
<path style="fill:#6b6b6b; stroke:none;" d="M344 128L345 129L344 128z"/>
<path style="fill:#a6a6a6; stroke:none;" d="M345 128L345 129L351 129L345 128z"/>
<path style="fill:#6b6b6b; stroke:none;" d="M351 128L352 129L351 128z"/>
<path style="fill:#505050; stroke:none;" d="M368 128L369 129L368 128z"/>
<path style="fill:#6b6b6b; stroke:none;" d="M369 128L370 129L369 128z"/>
<path style="fill:#a6a6a6; stroke:none;" d="M370.667 128.333L371.333 128.667L370.667 128.333M376.667 128.333L377.333 128.667L376.667 128.333z"/>
<path style="fill:#6b6b6b; stroke:none;" d="M378 128L379 129L378 128z"/>
<path style="fill:#505050; stroke:none;" d="M379 128L380 129L379 128M405 128L406 129L405 128z"/>
<path style="fill:#6b6b6b; stroke:none;" d="M431 128L432 129L431 128z"/>
<path style="fill:#a6a6a6; stroke:none;" d="M432.667 128.333L433.333 128.667L432.667 128.333M439.667 128.333L440.333 128.667L439.667 128.333z"/>
<path style="fill:#505050; stroke:none;" d="M441 128L442 129L441 128M305 129L305 130L308 130L305 129z"/>
<path style="fill:#6b6b6b; stroke:none;" d="M308.667 129.333L309.333 129.667L308.667 129.333z"/>
<path style="fill:#505050; stroke:none;" d="M310 129L310 130L313 130L310 129M490.333 141.667L490.667 142.333L490.333 141.667z"/>
<path style="fill:#6b6b6b; stroke:none;" d="M490.333 143.667L490.667 144.333L490.333 143.667z"/>
<path style="fill:#505050; stroke:none;" d="M6 144L7 145L6 144z"/>
<path style="fill:#6b6b6b; stroke:none;" d="M6 145L7 146L6 145z"/>
<path style="fill:#505050; stroke:none;" d="M489 147L490 148L489 147M7 148L8 149L7 148z"/>
<path style="fill:#6b6b6b; stroke:none;" d="M489 148L490 149L489 148M7 149L8 150L7 149M488 150L489 151L488 150M8 151L9 152L8 151z"/>
<path style="fill:#505050; stroke:none;" d="M9 152L10 153L9 152z"/>
<path style="fill:#6b6b6b; stroke:none;" d="M487 152L488 153L487 152z"/>
<path style="fill:#505050; stroke:none;" d="M486 153L487 154L486 153M10 154L11 155L10 154M11 155L12 156L11 155z"/>
<path style="fill:#6b6b6b; stroke:none;" d="M485 155L486 156L485 155M484 156L485 157L484 156z"/>
<path style="fill:#505050; stroke:none;" d="M483 157L484 158L483 157M14 158L15 159L14 158z"/>
<path style="fill:#6b6b6b; stroke:none;" d="M482 158L483 159L482 158z"/>
<path style="fill:#505050; stroke:none;" d="M15 159L16 160L15 159z"/>
<path style="fill:#6b6b6b; stroke:none;" d="M481 159L482 160L481 159z"/>
<path style="fill:#505050; stroke:none;" d="M17 160L18 161L17 160M479 160L480 161L479 160z"/>
<path style="fill:#6b6b6b; stroke:none;" d="M18 161L19 162L18 161z"/>
<path style="fill:#505050; stroke:none;" d="M477 161L478 162L477 161z"/>
<path style="fill:#6b6b6b; stroke:none;" d="M20 162L21 163L20 162z"/>
<path style="fill:#505050; stroke:none;" d="M21 162L22 163L21 162M475 162L476 163L475 162z"/>
<path style="fill:#6b6b6b; stroke:none;" d="M23 163L24 164L23 163z"/>
<path style="fill:#505050; stroke:none;" d="M24.6667 163.333L25.3333 163.667L24.6667 163.333M470.667 163.333L471.333 163.667L470.667 163.333z"/>
<path style="fill:#6b6b6b; stroke:none;" d="M472 163L473 164L472 163M30 164L30 165L467 165C456.734 160.692 439.158 164 428 164L339 164L30 164z"/>
</svg>
