<?xml version="1.0" standalone="yes"?>
<svg xmlns="http://www.w3.org/2000/svg" width="566" height="170">
<path style="fill:#040404; stroke:none;" d="M0 0L0 170L566 170L566 0L0 0z"/>
<path style="fill:#eb354c; stroke:none;" d="M19 1L19 2L547 2C535.068 -3.00673 513.991 1 501 1L393 1L19 1M15.6667 2.33333L16.3333 2.66667L15.6667 2.33333z"/>
<path style="fill:#dadada; stroke:none;" d="M17 2.52933C1.38222 6.13954 2 21.2853 2 34L2 130C2 142.668 -0.924429 159.479 13 166.08C23.8114 171.206 41.2347 168 53 168L145 168L433 168L515 168C525.955 168 541.82 170.886 552 166.467C566.15 160.325 564 144.691 564 132L564 36C564 23.1981 565.334 7.42563 550 2.80014C534.948 -1.74028 513.706 2 498 2L386 2L135 2L56 2C43.733 2 28.9664 -0.236847 17 2.52933z"/>
<path style="fill:#eb354c; stroke:none;" d="M549.667 2.33333L550.333 2.66667L549.667 2.33333M13 3L14 4L13 3M552 3L553 4L552 3M11 4L12 5L11 4M554 4L555 5L554 4M18 5L19 6L18 5z"/>
<path style="fill:#040404; stroke:none;" d="M19 5.52933C3.96943 9.0038 5 23.8225 5 36L5 128C5 139.884 1.90262 156.848 15.0008 163.08C24.8858 167.783 40.2633 165 51 165L132 165L422 165L512 165C523.499 165 540.432 168.108 550.999 163.08C563.75 157.013 561 140.613 561 129L561 37C561 25.0007 562.435 9.9617 548 5.78935C532.494 1.3074 511.127 5 495 5L382 5L135 5L57 5C45.0395 5 30.6689 2.83194 19 5.52933z"/>
<path style="fill:#eb354c; stroke:none;" d="M547 5L548 6L547 5M555 5L556 6L555 5M8 6L9 7L8 6M15 6L16 7L15 6M550 6L551 7L550 6M7 7L8 8L7 7M13 7L14 8L13 7M558 7L559 8L558 7M6 8L7 9L6 8M560 10L561 11L560 10M4 11L5 12L4 11M561 11L562 12L561 11M3 13L4 14L3 13M7 13L8 14L7 13M562 13L563 14L562 13M2.33333 15.6667L2.66667 16.3333L2.33333 15.6667M6 15L7 16L6 15M563 15L563 18L564 18L563 15M5 18L6 19L5 18M1 19L1 151L2 151L2 59C2 47.5799 5.40759 29.5038 1 19M560 19L561 20L560 19M564 20L564 150L565 150L565 59C565 47.842 568.308 30.2655 564 20z"/>
<path style="fill:#dadada; stroke:none;" d="M200 42L187 42L187 46L196 46C195.075 47.7403 194.321 49.285 192.772 50.591C179.586 61.709 171.735 31.2599 188.975 34.4537C190.952 34.82 192.368 35.924 194 37L195 37L197 35C187.687 23.5458 170.315 34.2214 174.653 47.9992C179.678 63.963 199.87 56.4107 200 42z"/>
<path style="fill:#eb354c; stroke:none;" d="M191 30L192 31L191 30M203 30L203 31L218 31L203 30M222 30L222 31L239 31L239 34C228.491 34.3451 232 48.1906 232 56L233 56L233 35C235.569 34.9156 242.964 32.1234 236.847 30.3171C232.44 29.0158 226.577 30 222 30M251 30L251 31L255 31L251 30M259 30L259 31L276 31L276 34C265.491 34.3451 269 48.1906 269 56L270 56L270 35C272.57 34.9156 279.964 32.1234 273.847 30.3171C269.441 29.0158 263.577 30 259 30z"/>
<path style="fill:#dadada; stroke:none;" d="M295.001 30.6528C278.948 35.6863 286.549 61.1267 303 56.4275C319.304 51.7702 311.677 25.4239 295.001 30.6528z"/>
<path style="fill:#eb354c; stroke:none;" d="M303 30L304 31L303 30M316 30L316 31L321 31L316 30M332 30L332 31L336 31L332 30z"/>
<path style="fill:#03dad9; stroke:none;" d="M44 136C51.0962 132.691 56.5157 125.484 62 120C72.9376 109.062 83.5299 97.5483 95 87.1698C101.473 81.3125 111.558 74.7011 114 66C97.7365 58.992 82.3971 48.473 67 39.7191C62.054 36.9071 54.1764 30.2376 48.1049 31.527C40.1081 33.2253 43 50.1546 43 56C43 81.0151 38.21 111.681 44 136z"/>
<path style="fill:#dadada; stroke:none;" d="M203 31L203 56L219 56L219 53L207 53L207 45L217 45L217 42L207 42L207 34L219 34L219 31L203 31M221 31L221 34L228 34L228 56L232 56C232 48.3877 228.751 34.7819 239 34L239 31L221 31M251 31L251 56L255 56L255 31L251 31M258 31L258 34L265 34L265 56L269 56C269 48.3876 265.751 34.7819 276 34L276 31L258 31M316 31L316 56L320 56L320 38L321 38C324.053 44.5308 328.24 54.7765 336 56L336 31L332 31L332 48C327.768 41.6042 324.532 31.649 316 31z"/>
<path style="fill:#eb354c; stroke:none;" d="M190 34L191 35L190 34M207 34L207 35L218 35L207 34M222 34L222 35L228 35L222 34M259 34L259 35L265 35L259 34z"/>
<path style="fill:#040404; stroke:none;" d="M296.019 34.7461C285.544 38.7555 291.095 56.3918 301.985 52.2539C312.681 48.1894 306.948 30.5627 296.019 34.7461z"/>
<path style="fill:#eb354c; stroke:none;" d="M302 34L303 35L302 34M192 35L193 36L192 35M193 36L194 37L193 36M305 36L306 37L305 36M324 36L325 37L324 36M307 39L308 40L307 39M178 40L179 41L178 40M290 40L291 41L290 40M207 41L207 42L217 42L207 41M217 42L217 45L218 45L217 42M312 42L312 45L313 45L312 42M323 42L324 43L323 42M329 44L330 45L329 44M178 46L179 47L178 46M290 46L291 47L290 46M195 47L196 48L195 47M307 47L308 48L307 47M305 50L306 51L305 50M192 51L193 52L192 51M190 52L191 53L190 52M197 52L198 53L197 52M207 52L207 53L218 53L207 52M196 53L197 54L196 53M195 54L196 55L195 54M183 56L184 57L183 56M191 56L192 57L191 56z"/>
<path style="fill:#dadada; stroke:none;" d="M114 67L115 68L114 67z"/>
<path style="fill:#fdca03; stroke:none;" d="M114 69.1358C109.926 70.7387 99.2068 80.343 99.2068 85C99.2068 90.5563 112.537 102.539 118 100.728C123.557 98.8848 137.555 92.3106 138.623 85.9861C139.778 79.1503 119.887 66.8194 114 69.1358z"/>
<path style="fill:#eb354c; stroke:none;" d="M120 70L121 71L120 70M122 71L123 72L122 71M199 72L199 73L203 73L199 72z"/>
<path style="fill:#dadada; stroke:none;" d="M226 98L201 98L201 105L218 105C214.088 129.629 176.67 119.735 181.519 97C183.398 88.1933 191.617 80.2368 201 80.358C208.349 80.453 214.526 88.2547 219 79C195.174 63.3004 159.952 85.7332 176.363 114C184.983 128.846 208.447 133.494 220.471 119.815C226.056 113.46 226 105.936 226 98z"/>
<path style="fill:#eb354c; stroke:none;" d="M208 73L209 74L208 73M127 74L128 75L127 74M346 74L346 75L354 75L346 74M407 74L407 75L429 75L407 74M447 74L447 75L455 75L447 74M129 75L130 76L129 75z"/>
<path style="fill:#dadada; stroke:none;" d="M346 75L346 127L354 127L354 75L346 75M407 75L407 127L415 127L415 107C422.019 107 429.774 107.977 435.985 104.005C445.955 97.6296 444.766 82.9038 434.996 77.0093C427.754 72.6395 415.19 75 407 75z"/>
<path style="fill:#eb354c; stroke:none;" d="M432 75L433 76L432 75z"/>
<path style="fill:#dadada; stroke:none;" d="M447 75L447 127L455 127L455 75L447 75z"/>
<path style="fill:#eb354c; stroke:none;" d="M434 76L435 77L434 76M184 77L185 78L184 77M216 77L217 78L216 77M134 78L135 79L134 78M437 78L438 79L437 78M438 79L439 80L438 79M137 80L138 81L137 80M198.667 80.3333L199.333 80.6667L198.667 80.3333M202.667 80.3333L203.333 80.6667L202.667 80.3333M439 80L440 81L439 80M218 81L219 82L218 81M209 82L210 83L209 82M217 82L218 83L217 82z"/>
<path style="fill:#040404; stroke:none;" d="M415 82L415 99C419.526 99 425.657 100.056 429.895 98.2577C435.964 95.6822 435.965 87.2723 430.891 83.7423C426.671 80.8061 419.877 82 415 82z"/>
<path style="fill:#eb354c; stroke:none;" d="M139 83L139 86L140 86L139 83M216 83L217 84L216 83M441 83L442 84L441 83M177 84L178 85L177 84M212 84L213 85L212 84M215 84L216 85L215 84M45 137C52.4593 140.248 59.5604 134.231 66 130.694C82.4382 121.666 98.4056 111.74 115 103C111.885 98.5786 102.872 86.2068 97 86.2068C92.1167 86.2068 86.1634 94.8366 83 98C70.5417 110.458 55.1456 122.597 45 137M187 85L188 86L187 85M214 85L215 86L214 85M186 86L187 87L186 86M183 90L184 91L183 90M134 91L135 92L134 91M173 92L174 93L173 92M242 92L243 93L242 92z"/>
<path style="fill:#dadada; stroke:none;" d="M243 92.5301C220.04 97.7269 228.23 132.705 251 127.316C273.265 122.047 265.343 87.473 243 92.5301z"/>
<path style="fill:#eb354c; stroke:none;" d="M250 92L251 93L250 92M281 92L282 93L281 92z"/>
<path style="fill:#dadada; stroke:none;" d="M282 92.5301C258.9 97.7584 267.188 132.716 290 127.316C311.613 122.2 304.038 87.542 282 92.5301z"/>
<path style="fill:#eb354c; stroke:none;" d="M289 92L290 93L289 92M320 92L321 93L320 92z"/>
<path style="fill:#dadada; stroke:none;" d="M333 124C332.443 135.991 322.44 139.474 315 130L308 133C313.117 144.536 331.509 148.777 338.312 135.96C344.423 124.449 341 105.644 341 93C337.49 93 333.854 92.0129 333 96C330.499 94.2974 328.078 92.778 325 92.3688C295.413 88.4358 307.248 143.63 333 124z"/>
<path style="fill:#eb354c; stroke:none;" d="M326 92L327 93L326 92M370 92L371 93L370 92z"/>
<path style="fill:#dadada; stroke:none;" d="M390 119C380.936 114.551 374.466 124.886 367 115L390 106C386.44 87.6001 360.245 88.4377 357.797 107C355.379 125.332 381.324 137.167 390 119z"/>
<path style="fill:#eb354c; stroke:none;" d="M377 92L378 93L377 92M469 92L470 93L469 92z"/>
<path style="fill:#dadada; stroke:none;" d="M460 100C468.327 104.649 476.742 95.0588 482 106C479.046 105.002 476.159 104.251 473 104.529C449.36 106.606 462.475 137.29 482 124C482.854 127.987 486.49 127 490 127C490 119.081 492.2 107.216 488.543 100.004C482.778 88.6351 466.17 90.2653 460 100z"/>
<path style="fill:#eb354c; stroke:none;" d="M478 92L479 93L478 92M239 93L240 94L239 93M278 93L279 94L278 93M329 93L330 94L329 93M367 93L368 94L367 93M434 93L435 94L434 93M466 93L467 94L466 93M490 93L491 94L490 93z"/>
<path style="fill:#dadada; stroke:none;" d="M491 93L503.08 125L497 142L505.185 140.397L512.424 125L526 93C512.729 93.0103 513.303 105.043 508 115C504.338 105.559 502.718 93.0415 491 93z"/>
<path style="fill:#eb354c; stroke:none;" d="M237 94L238 95L237 94M276 94L277 95L276 94M365 94L366 95L365 94M382 94L383 95L382 94M499 94L500 95L499 94M516 94L517 95L516 94M127 95L128 96L127 95M257 95L258 96L257 95M332 95L333 96L332 95M433 95L434 96L433 95M442 95L443 96L442 95M463 95L464 96L463 95M125 96L126 97L125 96M273 96L274 97L273 96M297 96L298 97L297 96M312 96L313 97L312 96M491 96L492 97L491 96M201 97L201 98L226 98L201 97M272 97L273 98L272 97M461 97L462 98L461 97M172 98L172 102L173 102L172 98M200 98L200 105L201 105L200 98M271 98L272 99L271 98M299 98L300 99L299 98M310 98L311 99L310 98M492 98L493 99L492 98M120 99L121 100L120 99M245 99L245 100L248 100L245 99M261 99L262 100L261 99M284 99L284 100L287 100L284 99M323 99L323 100L326 100L323 99M373 99L374 100L373 99z"/>
<path style="fill:#040404; stroke:none;" d="M365 109L380 103L380 101C372.255 98.3421 367.627 101.505 365 109z"/>
<path style="fill:#eb354c; stroke:none;" d="M387 99L388 100L387 99M416 99L416 100L427 100L416 99M472 99L472 100L476 100L472 99M488 99L489 100L488 99M514 99L515 100L514 99M523 99L524 100L523 99M118 100L119 101L118 100M226 100L226 105L227 105L226 100M242 100L243 101L242 100z"/>
<path style="fill:#040404; stroke:none;" d="M243.019 100.742C231.331 105.361 238.927 124.433 250.906 119.142C261.525 114.451 254.785 96.0921 243.019 100.742z"/>
<path style="fill:#eb354c; stroke:none;" d="M281 100L282 101L281 100z"/>
<path style="fill:#040404; stroke:none;" d="M282.015 100.742C270.638 105.205 277.516 124.438 288.985 119.526C300.117 114.759 294.007 96.0386 282.015 100.742M320.044 101.028C309.371 106.702 317.664 125.135 328.891 118.821C338.36 113.496 331.189 95.103 320.044 101.028z"/>
<path style="fill:#eb354c; stroke:none;" d="M328 100L329 101L328 100M370 100L371 101L370 100M378 100L379 101L378 100M460 100L461 101L460 100M478 100L479 101L478 100M252 101L253 102L252 101M269 101L270 102L269 101M291 101L292 102L291 101M301 101L302 102L301 101M308 101L309 102L308 101M318 101L319 102L318 101M468 101L469 102L468 101M502 101L503 102L502 101M522 101L523 102L522 101M292 102L293 103L292 102M317 102L318 103L317 102M380 102L381 103L380 102M254 103L255 104L254 103M302 103L303 104L302 103M181 104L182 105L181 104M229 104L230 105L229 104M366 104L367 105L366 104M376 104L377 105L376 104M471.667 104.333L472.333 104.667L471.667 104.333M476.667 104.333L477.333 104.667L476.667 104.333M201 105L201 106L218 106L201 105M294 105L295 106L294 105M315 105L316 106L315 105M433 105L434 106L433 105M467 105L468 106L467 105M495 105L496 106L495 105M237 106L238 107L237 106M264.333 106.667L264.667 107.333L264.333 106.667M388 106L389 107L388 106M430 106L431 107L430 106M504 106L505 107L504 106M520 106L521 107L520 106M173 107L174 108L173 107M182 107L183 108L182 107M357.333 107.667L357.667 108.333L357.333 107.667M365 107L366 108L365 107M369 107L370 108L369 107M463 107L464 108L463 107M496 107L497 108L496 107M511 107L512 108L511 107M256 108L256 112L257 112L256 108M303 108L303 112L304 112L303 108M306 108L306 113L307 113L306 108M333 108L333 112L334 112L333 108M519 108L520 109L519 108M295.333 109.667L295.667 110.333L295.333 109.667M314.333 109.667L314.667 110.333L314.333 109.667M381 109L382 110L381 109M461 109L462 110L461 109M174 110L175 111L174 110M225 110L226 111L225 110M184 111L185 112L184 111M216 111L217 112L216 111M357.333 111.667L357.667 112.333L357.333 111.667M376 111L377 112L376 111M471 111L472 112L471 111z"/>
<path style="fill:#040404; stroke:none;" d="M482 112C480.024 111.633 478.016 111.154 475.995 111.133C458.504 110.949 478.332 130.016 482 112z"/>
<path style="fill:#eb354c; stroke:none;" d="M479 111L480 112L479 111M506 111L507 112L506 111M175 112L176 113L175 112M264.333 112.667L264.667 113.333L264.333 112.667M469 112L470 113L469 112M509 112L510 113L509 112M224 113L225 114L224 113M237 113L238 114L237 113M371 113L372 114L371 113M459 113L460 114L459 113M176 114L177 115L176 114M294 114L295 115L294 114M315 114L316 115L315 114M499 114L500 115L499 114M223 115L224 116L223 115M229 115L230 116L229 115M516 115L517 116L516 115M189 116L190 117L189 116M254 116L255 117L254 116M302 116L303 117L302 116M307 116L308 117L307 116M316 116L317 117L316 116M210 117L211 118L210 117M292 117L293 118L292 117M317 117L318 118L317 117M467 117L468 118L467 117M179 118L180 119L179 118M208 118L209 119L208 118M221 118L222 119L221 118M252 118L253 119L252 118M269 118L270 119L269 118M291 118L292 119L291 118M301 118L302 119L301 118M308 118L309 119L308 118M318 118L319 119L318 118M180 119L181 120L180 119M196 119L197 120L196 119M205 119L206 120L205 119M242 119L243 120L242 119M281 119L282 120L281 119M328 119L329 120L328 119M370 119L371 120L370 119M379 119L380 120L379 119M459 119L460 120L459 119M477 119L478 120L477 119M181 120L182 121L181 120M245 120L245 121L248 121L245 120M261 120L262 121L261 120M284 120L285 121L284 120M286 120L287 121L286 120M323 120L323 121L326 121L323 120M360 120L361 121L360 120M373 120L373 121L377 121L373 120M472 120L472 121L475 121L472 120M271 121L272 122L271 121M299 121L300 122L299 121M310 121L311 122L310 121M460 121L461 122L460 121M502 121L503 122L502 121M217 122L218 123L217 122M272 122L273 123L272 122M513 122L514 123L513 122M185 123L186 124L185 123M273 123L274 124L273 123M503 123L504 124L503 123M214 124L215 125L214 124M257 124L258 125L257 124M313 124L314 125L313 124M332 124L333 125L332 124M512 124L513 125L512 124M212 125L213 126L212 125M237 125L238 126L237 125M276 125L277 126L276 125M191 126L192 127L191 126M239 126L240 127L239 126M278 126L279 127L278 126M382 126L383 127L382 126M195 127L196 128L195 127M205.667 127.333L206.333 127.667L205.667 127.333M242 127L243 128L242 127M250 127L251 128L250 127M281 127L282 128L281 127M289 127L290 128L289 127M319 127L320 128L319 127M371 127L372 128L371 127M379 127L380 128L379 127M468.667 127.333L469.333 127.667L468.667 127.333M475 127L476 128L475 127M340.333 128.667L340.667 129.333L340.333 128.667M502 128L503 129L502 128M510 129L511 130L510 129M501 130L502 131L501 130M311 131L312 132L311 131M509 131L510 132L509 131M331 132L332 133L331 132M339 133L340 134L339 133M308 134L309 135L308 134M319 135L320 136L319 135M322 136L322 137L325 137L322 136M337 137L338 138L337 137M498 137L499 138L498 137M506 138L507 139L506 138M497 139L498 140L497 139M313 140L314 141L313 140M334 140L335 141L334 140M496 141L497 142L496 141M497 142L497 143L505 143L497 142M320 143L321 144L320 143M327 143L328 144L327 143M560 150L561 151L560 150M5 151L6 152L5 151M563 152L563 155L564 155L563 152M2.33333 153.667L2.66667 154.333L2.33333 153.667M6 154L7 155L6 154M3 156L4 157L3 156M7 156L8 157L7 156M562 156L563 157L562 156M4 158L5 159L4 158M561 158L562 159L561 158M560 159L561 160L560 159M6 161L7 162L6 161M7 162L8 163L7 162M13 162L14 163L13 162M558 162L559 163L558 162M8 163L9 164L8 163M15 163L16 164L15 163M550 163L551 164L550 163M18 164L19 165L18 164M547 164L548 165L547 164M555 164L556 165L555 164M11 165L12 166L11 165M554 165L555 166L554 165M13 166L14 167L13 166M552 166L553 167L552 166M15.6667 167.333L16.3333 167.667L15.6667 167.333M549.667 167.333L550.333 167.667L549.667 167.333M19 168L19 169L547 169C535.068 163.993 513.991 168 501 168L393 168L19 168z"/>
</svg>
